<?xml version="1.0" encoding="utf-8"?>
<!-- Generator: Adobe Illustrator 19.0.0, SVG Export Plug-In . SVG Version: 6.00 Build 0)  -->
<svg version="1.1" id="Layer_1" xmlns="http://www.w3.org/2000/svg" xmlns:xlink="http://www.w3.org/1999/xlink" x="0px" y="0px"
	 viewBox="-379 181 200 200" style="enable-background:new -379 181 200 200;" xml:space="preserve">
<style type="text/css">
	.st0{display:none;}
	.st1{display:inline;}
	.st2{fill:#FFFFFF;stroke:#000000;stroke-width:3.688;stroke-miterlimit:10;}
	.st3{fill:#FFFFFF;}
</style>
<g id="Layer_1_1_" class="st0">
	<g id="Layer_2" class="st1">
		<g id="content_2">
			<path d="M-226,381h-106V223.9h106V381z M-328.2,377.2h98.3V227.7h-98.3V377.2z"/>
			<path d="M-244.3,227.7h-69.4v-14h69.5L-244.3,227.7z M-309.9,223.9h61.8v-6.4h-61.8V223.9z"/>
			<path d="M-328.2,381h-34.5V244.4h34.5V381z M-358.8,377.2h26.8v-129h-26.8V377.2z"/>
			<path d="M-195.3,381h-34.5V244.4h34.5V381z M-226,377.2h26.8v-129H-226V377.2z"/>
			<rect id="XMLID_105_" x="-280.9" y="189.1" width="3.8" height="20.4"/>
			<rect id="XMLID_104_" x="-289.2" y="197.3" width="20.4" height="3.8"/>
			<path d="M-259.2,381h-39.6v-29.4h39.6C-259.2,351.6-259.2,381-259.2,381z M-295,377.2h32v-21.7h-32V377.2z"/>
			<rect id="XMLID_101_" x="-220" y="257.4" width="3.8" height="13.6"/>
			<rect id="XMLID_100_" x="-220" y="276.8" width="3.8" height="13.6"/>
			<rect id="XMLID_99_" x="-220" y="296.2" width="3.8" height="13.6"/>
			<rect id="XMLID_98_" x="-220" y="315.6" width="3.8" height="13.6"/>
			<rect id="XMLID_97_" x="-220" y="335" width="3.8" height="13.6"/>
			<rect id="XMLID_96_" x="-220" y="354.4" width="3.8" height="13.6"/>
			<rect id="XMLID_95_" x="-209.1" y="257.4" width="3.8" height="13.6"/>
			<rect id="XMLID_94_" x="-209.1" y="276.8" width="3.8" height="13.6"/>
			<rect id="XMLID_93_" x="-209.1" y="296.2" width="3.8" height="13.6"/>
			<rect id="XMLID_92_" x="-209.1" y="315.6" width="3.8" height="13.6"/>
			<rect id="XMLID_91_" x="-209.1" y="335" width="3.8" height="13.6"/>
			<rect id="XMLID_90_" x="-209.1" y="354.4" width="3.8" height="13.6"/>
			<rect id="XMLID_89_" x="-352.8" y="257.4" width="3.8" height="13.6"/>
			<rect id="XMLID_88_" x="-352.8" y="276.8" width="3.8" height="13.6"/>
			<rect id="XMLID_87_" x="-352.8" y="296.2" width="3.8" height="13.6"/>
			<rect id="XMLID_86_" x="-352.8" y="315.6" width="3.8" height="13.6"/>
			<rect id="XMLID_85_" x="-352.8" y="335" width="3.8" height="13.6"/>
			<rect id="XMLID_84_" x="-352.8" y="354.4" width="3.8" height="13.6"/>
			<rect id="XMLID_83_" x="-341.9" y="257.4" width="3.8" height="13.6"/>
			<rect id="XMLID_82_" x="-341.9" y="276.8" width="3.8" height="13.6"/>
			<rect id="XMLID_81_" x="-341.9" y="296.2" width="3.8" height="13.6"/>
			<rect id="XMLID_80_" x="-341.9" y="315.6" width="3.8" height="13.6"/>
			<rect id="XMLID_79_" x="-341.9" y="335" width="3.8" height="13.6"/>
			<rect id="XMLID_78_" x="-341.9" y="354.4" width="3.8" height="13.6"/>
			<rect id="XMLID_77_" x="-253.7" y="235.9" width="3.8" height="13.6"/>
			<rect id="XMLID_76_" x="-253.7" y="255.3" width="3.8" height="13.6"/>
			<rect id="XMLID_75_" x="-253.7" y="274.7" width="3.8" height="13.6"/>
			<rect id="XMLID_74_" x="-253.7" y="294.1" width="3.8" height="13.6"/>
			<rect id="XMLID_73_" x="-253.7" y="313.5" width="3.8" height="13.6"/>
			<rect id="XMLID_72_" x="-253.7" y="332.9" width="3.8" height="13.6"/>
			<rect id="XMLID_71_" x="-242.8" y="235.9" width="3.8" height="13.6"/>
			<rect id="XMLID_70_" x="-242.8" y="255.3" width="3.8" height="13.6"/>
			<rect id="XMLID_69_" x="-242.8" y="274.7" width="3.8" height="13.6"/>
			<rect id="XMLID_68_" x="-242.8" y="294.1" width="3.8" height="13.6"/>
			<rect id="XMLID_67_" x="-242.8" y="313.5" width="3.8" height="13.6"/>
			<rect id="XMLID_66_" x="-242.8" y="332.9" width="3.8" height="13.6"/>
			<rect id="XMLID_65_" x="-264.6" y="235.9" width="3.8" height="13.6"/>
			<rect id="XMLID_64_" x="-264.6" y="255.3" width="3.8" height="13.6"/>
			<rect id="XMLID_63_" x="-264.6" y="274.7" width="3.8" height="13.6"/>
			<rect id="XMLID_62_" x="-264.6" y="294.1" width="3.8" height="13.6"/>
			<rect id="XMLID_61_" x="-264.6" y="313.5" width="3.8" height="13.6"/>
			<rect id="XMLID_60_" x="-264.6" y="332.9" width="3.8" height="13.6"/>
			<rect id="XMLID_59_" x="-275.5" y="235.9" width="3.8" height="13.6"/>
			<rect id="XMLID_58_" x="-275.5" y="255.3" width="3.8" height="13.6"/>
			<rect id="XMLID_57_" x="-275.5" y="274.7" width="3.8" height="13.6"/>
			<rect id="XMLID_56_" x="-275.5" y="294.1" width="3.8" height="13.6"/>
			<rect id="XMLID_55_" x="-275.5" y="313.5" width="3.8" height="13.6"/>
			<rect id="XMLID_54_" x="-275.5" y="332.9" width="3.8" height="13.6"/>
			<rect id="XMLID_53_" x="-286.4" y="235.9" width="3.8" height="13.6"/>
			<rect id="XMLID_52_" x="-286.4" y="255.3" width="3.8" height="13.6"/>
			<rect id="XMLID_51_" x="-286.4" y="274.7" width="3.8" height="13.6"/>
			<rect id="XMLID_50_" x="-286.4" y="294.1" width="3.8" height="13.6"/>
			<rect id="XMLID_49_" x="-286.4" y="313.5" width="3.8" height="13.6"/>
			<rect id="XMLID_48_" x="-286.4" y="332.9" width="3.8" height="13.6"/>
			<rect id="XMLID_47_" x="-297.3" y="235.9" width="3.8" height="13.6"/>
			<rect id="XMLID_46_" x="-297.3" y="255.3" width="3.8" height="13.6"/>
			<rect id="XMLID_45_" x="-297.3" y="274.7" width="3.8" height="13.6"/>
			<rect id="XMLID_44_" x="-297.3" y="294.1" width="3.8" height="13.6"/>
			<rect id="XMLID_43_" x="-297.3" y="313.5" width="3.8" height="13.6"/>
			<rect id="XMLID_42_" x="-297.3" y="332.9" width="3.8" height="13.6"/>
			<rect id="XMLID_41_" x="-308.2" y="235.9" width="3.8" height="13.6"/>
			<rect id="XMLID_40_" x="-308.2" y="255.3" width="3.8" height="13.6"/>
			<rect id="XMLID_39_" x="-308.2" y="274.7" width="3.8" height="13.6"/>
			<rect id="XMLID_38_" x="-308.2" y="294.1" width="3.8" height="13.6"/>
			<rect id="XMLID_37_" x="-308.2" y="313.5" width="3.8" height="13.6"/>
			<rect id="XMLID_36_" x="-308.2" y="332.9" width="3.8" height="13.6"/>
			<rect id="XMLID_35_" x="-319.1" y="235.9" width="3.8" height="13.6"/>
			<rect id="XMLID_34_" x="-319.1" y="255.3" width="3.8" height="13.6"/>
			<rect id="XMLID_33_" x="-319.1" y="274.7" width="3.8" height="13.6"/>
			<rect id="XMLID_32_" x="-319.1" y="294.1" width="3.8" height="13.6"/>
			<rect id="XMLID_31_" x="-319.1" y="313.5" width="3.8" height="13.6"/>
			<rect id="XMLID_30_" x="-319.1" y="332.9" width="3.8" height="13.6"/>
			<rect id="XMLID_29_" x="-280.9" y="353.5" width="3.8" height="25.5"/>
			<path d="M-251.5,217.5h-55V181h54.9v36.5H-251.5z M-302.6,213.7h47.2v-28.9h-47.2V213.7z"/>
		</g>
	</g>
</g>
<g id="Layer_2_1_" class="st0">
	<g id="Layer_2_2_" class="st1">
		<g id="content_2_1_">
			<rect id="XMLID_152_" x="-280.9" y="284.7" width="3.8" height="94.2"/>
			<path id="XMLID_194_" d="M-224.2,254.1h-109.7v-20.6c0-5.6,4.6-10.2,10.2-10.2h89.3c5.6,0,10.2,4.6,10.2,10.2V254.1z M-330,250.3
				h102v-16.8c0-3.5-2.8-6.4-6.3-6.4h-89.4c-3.5,0-6.4,2.8-6.4,6.4l0,0L-330,250.3z"/>
			<path id="XMLID_191_" d="M-279,381c-4.3,0-8.5-1.7-11.5-4.8l-48.6-48.5c-2.6-2.6-4-6-4-9.7v-18.8c0-0.9,0.1-1.8,0.3-2.7l9.4-46.2
				h109l9.5,46.2c0.2,0.9,0.3,1.8,0.3,2.7V318c0,3.6-1.4,7.1-4,9.7l-48.7,48.5C-270.5,379.3-274.7,381-279,381z M-330.4,254.1
				l-8.8,43.1c-0.1,0.6-0.2,1.3-0.2,1.9V318c0,2.6,1,5.1,2.9,7l48.6,48.5c4.9,4.9,12.8,4.9,17.7,0l48.6-48.5c1.8-1.9,2.9-4.4,2.9-7
				v-18.8c0-0.6-0.1-1.3-0.2-1.9l-8.8-43.1L-330.4,254.1z"/>
			<polygon id="XMLID_147_" points="-217.2,299.9 -279,286.7 -340.9,299.9 -341.7,296.1 -279,282.8 -216.4,296.1 			"/>
			<polygon id="XMLID_146_" points="-217.2,324.8 -279,311.6 -340.9,324.8 -341.7,321 -279,307.7 -216.4,321 			"/>
			<path id="XMLID_186_" d="M-255.4,226.5h-47.2l6.5-16c1.4-3.4,4.7-5.7,8.5-5.7h17.2c3.7,0,7.1,2.2,8.5,5.7L-255.4,226.5z
				 M-296.9,222.7h35.8l-4.4-10.8c-0.8-2-2.7-3.3-4.9-3.3h-17.2c-2.1,0-4.1,1.3-4.9,3.3L-296.9,222.7z"/>
			<path id="XMLID_183_" d="M-266.7,196.8h-25.2c-4.4,0-7.9-3.5-7.9-7.9c0-4.3,3.5-7.9,7.9-7.9h25.2c4.4,0,7.9,3.5,7.9,7.9
				C-258.8,193.3-262.4,196.8-266.7,196.8L-266.7,196.8z M-291.9,184.8c-2.2,0-4.1,1.8-4.1,4.1c0,2.2,1.8,4.1,4.1,4.1h25.2
				c2.2,0,4.1-1.8,4.1-4.1c0-2.3-1.8-4.1-4.1-4.1l0,0C-266.7,184.8-291.9,184.8-291.9,184.8z"/>
			<path id="XMLID_180_" d="M-269.4,207.7h-19.2v-14.1h19.2C-269.4,193.6-269.4,207.7-269.4,207.7z M-284.8,203.9h11.5v-6.4h-11.5
				V203.9z"/>
			<rect id="XMLID_139_" x="-323.7" y="223.3" width="89.3" height="3.8"/>
			<rect id="XMLID_138_" x="-332" y="236.8" width="105.5" height="3.8"/>
			<rect id="XMLID_137_" x="-332" y="250.3" width="105.9" height="3.8"/>
			<rect id="XMLID_136_" x="-280.9" y="225.2" width="3.8" height="13.5"/>
			<rect id="XMLID_135_" x="-299.2" y="238" width="3.8" height="13.5"/>
			<rect id="XMLID_134_" x="-310.1" y="225.2" width="3.8" height="13.5"/>
			<rect id="XMLID_133_" x="-251.7" y="225.2" width="3.8" height="13.5"/>
			<rect id="XMLID_132_" x="-262.7" y="238" width="3.8" height="13.5"/>
			<rect id="XMLID_131_" x="-285.8" y="261" width="13.5" height="3.8"/>
			<rect id="XMLID_130_" x="-306.1" y="262.4" width="13.5" height="3.8"/>
			<rect id="XMLID_129_" x="-265.4" y="262.4" width="13.5" height="3.8"/>
			<path id="XMLID_128_" d="M-278.3,363.3l-0.8-3.7c28.4-6,47.7-24.6,47.9-24.7l2.7,2.7C-229.4,338.4-248.8,357.1-278.3,363.3z"/>
			<path id="XMLID_127_" d="M-279.6,363.3c-29.5-6.3-49-25-49.8-25.8l2.7-2.7c0.2,0.2,19.5,18.7,47.9,24.7L-279.6,363.3z"/>
			<path id="XMLID_126_" d="M-243.7,334.4c-0.1,0-0.3,0-0.4,0l-9.4-2c-1-0.2-1.7-1.2-1.5-2.2c0.2-1,1.2-1.7,2.2-1.5c0,0,0,0,0.1,0
				l9.4,2c1,0.2,1.7,1.3,1.4,2.3C-242.1,333.8-242.8,334.4-243.7,334.4L-243.7,334.4z"/>
			<path id="XMLID_125_" d="M-314.3,334.4c-1.1,0-1.9-0.9-1.9-1.9c0-0.9,0.6-1.6,1.5-1.8l9.4-2c1-0.2,2,0.5,2.2,1.6
				c0.2,1-0.4,1.9-1.4,2.2l-9.4,2C-314,334.4-314.2,334.4-314.3,334.4z"/>
			<rect id="XMLID_124_" x="-266.3" y="286.9" width="3.8" height="25.5"/>
			<rect id="XMLID_123_" x="-295.5" y="286.9" width="3.8" height="25.5"/>
			
				<rect id="XMLID_122_" x="-242.2" y="278.4" transform="matrix(0.2083 -0.9781 0.9781 0.2083 -486.0515 4.4745)" width="3.8" height="48.1"/>
			
				<rect id="XMLID_121_" x="-341.8" y="300.6" transform="matrix(0.9781 -0.2083 0.2083 0.9781 -69.9748 -59.5229)" width="48.4" height="3.8"/>
			<rect id="XMLID_120_" x="-326.5" y="264.4" width="13.5" height="3.8"/>
			<rect id="XMLID_119_" x="-245" y="264.4" width="13.5" height="3.8"/>
			<rect id="XMLID_118_" x="-285.8" y="273.2" width="13.5" height="3.8"/>
			<rect id="XMLID_117_" x="-306.1" y="274.6" width="13.5" height="3.8"/>
			<rect id="XMLID_116_" x="-265.4" y="274.6" width="13.5" height="3.8"/>
			<rect id="XMLID_115_" x="-326.5" y="276.6" width="13.5" height="3.8"/>
			<rect id="XMLID_114_" x="-245" y="276.6" width="13.5" height="3.8"/>
		</g>
	</g>
</g>
<g id="Layer_3" class="st0">
	<g id="Layer_2_3_" class="st1">
		<g id="content_2_2_">
			<polygon id="XMLID_276_" points="-191.3,374.2 -366.7,374.2 -366.7,250.9 -363,250.9 -363,370.5 -195,370.5 -195,250.9 
				-191.3,250.9 			"/>
			<rect id="XMLID_275_" x="-316.9" y="366.2" class="st2" width="75.7" height="12.3"/>
			<path id="XMLID_404_" d="M-305.8,367.6c-0.7,0-1.3-0.6-1.3-1.3v-7.9c0-0.7,0.6-1.3,1.3-1.3c0.7,0,1.3,0.6,1.3,1.3v7.9
				C-304.5,367-305.1,367.6-305.8,367.6L-305.8,367.6z M-305.8,355.8c-0.7,0-1.3-0.6-1.3-1.3v-7.9c0-0.7,0.6-1.3,1.3-1.3
				c0.7,0,1.3,0.6,1.3,1.3l0,0v7.9C-304.5,355.2-305.1,355.8-305.8,355.8L-305.8,355.8z M-305.8,344c-0.7,0-1.3-0.6-1.3-1.3v-7.8
				c0-0.7,0.6-1.3,1.3-1.3c0.7,0,1.3,0.6,1.3,1.3v7.8C-304.5,343.4-305.1,344-305.8,344L-305.8,344z M-305.8,332.2
				c-0.7,0-1.3-0.6-1.3-1.3v-4c0-0.7,0.6-1.3,1.3-1.3c0.7,0,1.3,0.6,1.3,1.3v4C-304.5,331.6-305.1,332.2-305.8,332.2L-305.8,332.2
				L-305.8,332.2z"/>
			<path id="XMLID_398_" d="M-299.1,367.6c-0.7,0-1.3-0.6-1.3-1.3v-7.9c0.1-0.7,0.7-1.3,1.4-1.2c0.6,0.1,1.1,0.6,1.2,1.2v7.9
				C-297.8,367-298.4,367.6-299.1,367.6z M-299.1,355.8c-0.7,0-1.3-0.6-1.3-1.3v-7.9c-0.1-0.7,0.5-1.4,1.2-1.4
				c0.7-0.1,1.4,0.5,1.4,1.2c0,0.1,0,0.1,0,0.2v7.9C-297.8,355.2-298.4,355.8-299.1,355.8z M-299.1,344c-0.7,0-1.3-0.6-1.3-1.3l0,0
				v-7.8c-0.1-0.7,0.5-1.4,1.2-1.4c0.7-0.1,1.4,0.5,1.4,1.2c0,0.1,0,0.1,0,0.2v7.8C-297.8,343.4-298.4,344-299.1,344L-299.1,344z
				 M-299.1,332.2c-0.7,0-1.3-0.6-1.3-1.3l0,0v-7.8c-0.1-0.7,0.5-1.4,1.2-1.4c0.7-0.1,1.4,0.5,1.4,1.2c0,0.1,0,0.1,0,0.2v7.8
				C-297.8,331.6-298.4,332.2-299.1,332.2L-299.1,332.2L-299.1,332.2z M-299.1,320.5c-0.7,0-1.3-0.6-1.3-1.3v-7.9
				c0.1-0.7,0.7-1.3,1.4-1.2c0.6,0.1,1.1,0.6,1.2,1.2v7.9C-297.8,319.9-298.4,320.4-299.1,320.5L-299.1,320.5z"/>
			<path id="XMLID_391_" d="M-292.4,367.6c-0.7,0-1.3-0.6-1.3-1.3v-7.9c0-0.7,0.6-1.3,1.3-1.3c0.7,0,1.3,0.6,1.3,1.3v7.9
				C-291.1,367-291.7,367.6-292.4,367.6z M-292.4,355.8c-0.7,0-1.3-0.6-1.3-1.3v-7.9c0-0.7,0.6-1.3,1.3-1.3c0.7,0,1.3,0.6,1.3,1.3
				l0,0v7.9C-291.1,355.2-291.7,355.8-292.4,355.8z M-292.4,344c-0.7,0-1.3-0.6-1.3-1.3v-7.8c0-0.7,0.6-1.3,1.3-1.3
				c0.7,0,1.3,0.6,1.3,1.3v7.8C-291.1,343.4-291.7,344-292.4,344z M-292.4,332.2c-0.7,0-1.3-0.6-1.3-1.3v-7.8c0-0.7,0.6-1.3,1.3-1.3
				c0.7,0,1.3,0.6,1.3,1.3v7.8C-291.1,331.6-291.7,332.2-292.4,332.2L-292.4,332.2L-292.4,332.2z M-292.4,320.5
				c-0.7,0-1.3-0.6-1.3-1.3v-7.9c0-0.7,0.6-1.3,1.3-1.3c0.7,0,1.3,0.6,1.3,1.3v7.9C-291.1,319.9-291.7,320.4-292.4,320.5
				L-292.4,320.5z M-292.4,308.7c-0.7,0-1.3-0.6-1.3-1.3v-6.9c0-0.7,0.6-1.3,1.3-1.3c0.7,0,1.3,0.6,1.3,1.3v6.9
				C-291.1,308.1-291.7,308.7-292.4,308.7L-292.4,308.7z"/>
			<path id="XMLID_385_" d="M-285.7,367.6c-0.7,0-1.3-0.6-1.3-1.3v-7.9c0-0.7,0.6-1.3,1.3-1.3c0.7,0,1.3,0.6,1.3,1.3v7.9
				C-284.4,367-285,367.6-285.7,367.6z M-285.7,355.8c-0.7,0-1.3-0.6-1.3-1.3v-7.9c0-0.7,0.6-1.3,1.3-1.3c0.7,0,1.3,0.6,1.3,1.3l0,0
				v7.9C-284.4,355.2-285,355.8-285.7,355.8z M-285.7,344c-0.7,0-1.3-0.6-1.3-1.3v-7.8c0-0.7,0.6-1.3,1.3-1.3c0.7,0,1.3,0.6,1.3,1.3
				v7.8C-284.4,343.4-285,344-285.7,344L-285.7,344z M-285.7,332.2c-0.7,0-1.3-0.6-1.3-1.3v-7.8c0-0.7,0.6-1.3,1.3-1.3
				c0.7,0,1.3,0.6,1.3,1.3v7.8C-284.4,331.6-285,332.2-285.7,332.2L-285.7,332.2L-285.7,332.2z M-285.7,320.5
				c-0.7,0-1.3-0.6-1.3-1.3v-7.1c0-0.7,0.6-1.3,1.3-1.3c0.7,0,1.3,0.6,1.3,1.3l0,0v7.1C-284.4,319.9-285,320.5-285.7,320.5
				L-285.7,320.5L-285.7,320.5z"/>
			<path id="XMLID_378_" d="M-279,367.6c-0.7,0-1.3-0.6-1.3-1.3v-7.9c0-0.7,0.6-1.3,1.3-1.3s1.3,0.6,1.3,1.3v7.9
				C-277.7,367-278.3,367.6-279,367.6z M-279,355.8c-0.7,0-1.3-0.6-1.3-1.3v-7.9c0-0.7,0.6-1.3,1.3-1.3s1.3,0.6,1.3,1.3l0,0v7.9
				C-277.7,355.2-278.3,355.8-279,355.8z M-279,344c-0.7,0-1.3-0.6-1.3-1.3l0,0v-7.8c0-0.7,0.6-1.3,1.3-1.3s1.3,0.6,1.3,1.3v7.8
				C-277.7,343.4-278.3,344-279,344z M-279,332.2c-0.7,0-1.3-0.6-1.3-1.3l0,0v-7.8c0-0.7,0.6-1.3,1.3-1.3s1.3,0.6,1.3,1.3v7.8
				C-277.7,331.6-278.3,332.2-279,332.2L-279,332.2z M-279,320.5c-0.7,0-1.3-0.6-1.3-1.3v-7.9c0-0.7,0.6-1.3,1.3-1.3
				s1.3,0.6,1.3,1.3v7.9C-277.7,319.9-278.3,320.4-279,320.5L-279,320.5z M-279,308.7c-0.7,0-1.3-0.6-1.3-1.3v-7.9
				c0-0.7,0.6-1.3,1.3-1.3s1.3,0.6,1.3,1.3v7.9C-277.7,308.1-278.3,308.7-279,308.7L-279,308.7z"/>
			<path id="XMLID_372_" d="M-272.3,367.6c-0.7,0-1.3-0.6-1.3-1.3v-7.9c0-0.7,0.6-1.3,1.3-1.3c0.7,0,1.3,0.6,1.3,1.3v7.9
				C-271,367-271.6,367.6-272.3,367.6z M-272.3,355.8c-0.7,0-1.3-0.6-1.3-1.3v-7.9c0-0.7,0.6-1.3,1.3-1.3c0.7,0,1.3,0.6,1.3,1.3l0,0
				v7.9C-271,355.2-271.6,355.8-272.3,355.8z M-272.3,344c-0.7,0-1.3-0.6-1.3-1.3v-7.8c0-0.7,0.6-1.3,1.3-1.3c0.7,0,1.3,0.6,1.3,1.3
				v7.8C-271,343.4-271.6,344-272.3,344L-272.3,344z M-272.3,332.2c-0.7,0-1.3-0.6-1.3-1.3v-7.8c0-0.7,0.6-1.3,1.3-1.3
				c0.7,0,1.3,0.6,1.3,1.3v7.8C-271,331.6-271.6,332.2-272.3,332.2L-272.3,332.2L-272.3,332.2z M-272.3,320.5
				c-0.7,0-1.3-0.6-1.3-1.3v-7.9c0-0.7,0.6-1.3,1.3-1.3c0.7,0,1.3,0.6,1.3,1.3v7.9C-271,319.9-271.6,320.5-272.3,320.5L-272.3,320.5
				L-272.3,320.5z"/>
			<path id="XMLID_365_" d="M-265.6,367.6c-0.7,0-1.3-0.6-1.3-1.3v-7.9c0-0.7,0.6-1.3,1.3-1.3c0.7,0,1.3,0.6,1.3,1.3v7.9
				C-264.3,367-264.9,367.6-265.6,367.6z M-265.6,355.8c-0.7,0-1.3-0.6-1.3-1.3v-7.9c0-0.7,0.6-1.3,1.3-1.3c0.7,0,1.3,0.6,1.3,1.3
				l0,0v7.9C-264.3,355.2-264.9,355.8-265.6,355.8z M-265.6,344c-0.7,0-1.3-0.6-1.3-1.3l0,0v-7.8c0-0.7,0.6-1.3,1.3-1.3
				c0.7,0,1.3,0.6,1.3,1.3v7.8C-264.3,343.4-264.9,344-265.6,344z M-265.6,332.2c-0.7,0-1.3-0.6-1.3-1.3l0,0v-7.8
				c0-0.7,0.6-1.3,1.3-1.3c0.7,0,1.3,0.6,1.3,1.3v7.8C-264.3,331.6-264.9,332.2-265.6,332.2L-265.6,332.2L-265.6,332.2z
				 M-265.6,320.5c-0.7,0-1.3-0.6-1.3-1.3v-7.9c0-0.7,0.6-1.3,1.3-1.3c0.7,0,1.3,0.6,1.3,1.3v7.9
				C-264.3,319.9-264.9,320.4-265.6,320.5L-265.6,320.5z M-265.6,308.7c-0.7,0-1.3-0.6-1.3-1.3v-2.5c0-0.7,0.6-1.3,1.3-1.3
				c0.7,0,1.3,0.6,1.3,1.3v2.5C-264.3,308.1-264.9,308.7-265.6,308.7L-265.6,308.7z"/>
			<path id="XMLID_359_" d="M-258.9,367.6c-0.7,0-1.3-0.6-1.3-1.3v-7.9c0-0.7,0.6-1.3,1.3-1.3c0.7,0,1.3,0.6,1.3,1.3v7.9
				C-257.6,367-258.2,367.6-258.9,367.6z M-258.9,355.8c-0.7,0-1.3-0.6-1.3-1.3v-7.9c0-0.7,0.6-1.3,1.3-1.3c0.7,0,1.3,0.6,1.3,1.3
				l0,0v7.9C-257.6,355.2-258.2,355.8-258.9,355.8z M-258.9,344c-0.7,0-1.3-0.6-1.3-1.3v-7.8c0-0.7,0.6-1.3,1.3-1.3
				c0.7,0,1.3,0.6,1.3,1.3v7.8C-257.6,343.4-258.2,344-258.9,344L-258.9,344z M-258.9,332.2c-0.7,0-1.3-0.6-1.3-1.3v-7.8
				c0-0.7,0.6-1.3,1.3-1.3c0.7,0,1.3,0.6,1.3,1.3v7.8C-257.6,331.6-258.2,332.2-258.9,332.2L-258.9,332.2L-258.9,332.2z
				 M-258.9,320.5c-0.7,0-1.3-0.6-1.3-1.3v-4c0-0.7,0.6-1.3,1.3-1.3c0.7,0,1.3,0.6,1.3,1.3v4C-257.6,319.9-258.2,320.5-258.9,320.5
				L-258.9,320.5L-258.9,320.5z"/>
			<path id="XMLID_354_" d="M-252.2,367.6c-0.7,0-1.3-0.6-1.3-1.3v-7.9c0-0.7,0.6-1.3,1.3-1.3s1.3,0.6,1.3,1.3v7.9
				C-250.9,367-251.5,367.6-252.2,367.6z M-252.2,355.8c-0.7,0-1.3-0.6-1.3-1.3v-7.9c0-0.7,0.6-1.3,1.3-1.3s1.3,0.6,1.3,1.3l0,0v7.9
				C-250.9,355.2-251.5,355.8-252.2,355.8z M-252.2,344c-0.7,0-1.3-0.6-1.3-1.3l0,0v-7.8c0-0.7,0.6-1.3,1.3-1.3s1.3,0.6,1.3,1.3l0,0
				v7.8C-250.9,343.4-251.5,344-252.2,344z M-252.2,332.2c-0.7,0-1.3-0.6-1.3-1.3l0,0v-6.7c0-0.7,0.6-1.3,1.3-1.3s1.3,0.6,1.3,1.3
				l0,0v6.7C-250.9,331.6-251.5,332.2-252.2,332.2L-252.2,332.2L-252.2,332.2z"/>
			<path id="XMLID_228_" d="M-279,283.5c-0.7,0-1.3-0.6-1.3-1.3l0,0v-4.8c0-0.7,0.6-1.3,1.3-1.3s1.3,0.6,1.3,1.3v4.8
				C-277.7,282.9-278.3,283.5-279,283.5z"/>
			<path id="XMLID_227_" d="M-305.8,308c-0.7,0-1.3-0.6-1.3-1.3v-6.2c0-0.7,0.6-1.3,1.3-1.3c0.7,0,1.3,0.6,1.3,1.3v6.2
				C-304.5,307.4-305.1,308-305.8,308L-305.8,308z"/>
			<path id="XMLID_226_" d="M-258.9,294c-0.7,0-1.3-0.6-1.3-1.3v-5c0-0.7,0.6-1.3,1.3-1.3c0.7,0,1.3,0.6,1.3,1.3v5
				C-257.6,293.4-258.2,294-258.9,294z"/>
			<path id="XMLID_225_" d="M-312,366.2h-3.7v-9.9c0-2.9-2.4-5.3-5.3-5.3c-1.4,0-2.8,0.6-3.8,1.6l-2.6-2.6c3.5-3.5,9.2-3.5,12.8,0
				c1.7,1.7,2.7,4,2.7,6.4L-312,366.2z"/>
			<path id="XMLID_224_" d="M-295.6,366.2h-3.7v-9.9c0-2.9-2.4-5.3-5.3-5.3c-1.4,0-2.8,0.6-3.8,1.6l-2.6-2.6c3.5-3.5,9.3-3.5,12.8,0
				c1.7,1.7,2.6,4,2.6,6.4V366.2z"/>
			<path id="XMLID_223_" d="M-279.2,366.2h-3.7v-9.9c0-2.9-2.4-5.3-5.3-5.3c-1.4,0-2.8,0.6-3.8,1.6l-2.6-2.6c3.5-3.5,9.3-3.5,12.8,0
				c1.7,1.7,2.6,4,2.6,6.4V366.2z"/>
			<path id="XMLID_222_" d="M-242.4,366.2h-3.6v-9.9c0-5,4.1-9,9-9c2.4,0,4.7,1,6.4,2.6l-2.6,2.6c-2.1-2.1-5.5-2.1-7.5,0
				c-1,1-1.6,2.4-1.6,3.8L-242.4,366.2L-242.4,366.2z"/>
			<path id="XMLID_221_" d="M-258.7,366.2h-3.7v-9.9c0-5,4-9,9-9c2.4,0,4.7,1,6.4,2.7l-2.6,2.6c-2.1-2.1-5.5-2.1-7.5,0
				c-1,1-1.6,2.4-1.6,3.8C-258.7,356.4-258.7,366.2-258.7,366.2z"/>
			<path id="XMLID_220_" d="M-275.1,366.2h-3.7v-9.9c0-5,4.1-9,9-9c2.4,0,4.7,1,6.4,2.6l-2.6,2.6c-2.1-2.1-5.5-2.1-7.5,0
				c-1,1-1.6,2.4-1.6,3.8C-275.1,356.3-275.1,366.2-275.1,366.2z"/>
			<path id="XMLID_342_" d="M-338.5,252.8H-379v-12.7h40.5V252.8z M-375.3,249.1h33.1v-5.3h-33.1V249.1z"/>
			<path id="XMLID_339_" d="M-179,252.8h-40.5v-12.7h40.5V252.8z M-215.8,249.1h33.1v-5.3h-33.1L-215.8,249.1z"/>
			<path id="XMLID_336_" d="M-290.5,228.2h-58.2v-12.6h58.3v12.6H-290.5z M-345.1,224.6h50.9v-5.3h-50.9V224.6z"/>
			<path id="XMLID_333_" d="M-257.4,209.4h-43.3v-12.6h43.3C-257.4,196.8-257.4,209.4-257.4,209.4z M-297,205.7h36v-5.3h-36V205.7z"
				/>
			<path id="XMLID_330_" d="M-209.4,228.2h-58.3v-12.6h58.3V228.2z M-263.9,224.6h50.9v-5.3h-50.9V224.6z"/>
			<rect id="XMLID_209_" x="-342.2" y="226.4" width="3.7" height="20"/>
			<rect id="XMLID_208_" x="-219.5" y="226.4" width="3.7" height="20"/>
			<polygon id="XMLID_207_" points="-263.9,367.7 -267.6,367.7 -267.6,209.4 -290.5,209.4 -290.5,367.7 -294.1,367.7 -294.1,205.7 
				-263.9,205.7 			"/>
			<path id="XMLID_206_" d="M-263.9,198.6h-3.7c0-6.3-5.1-11.4-11.4-11.4s-11.4,5.1-11.4,11.4l0,0h-3.7c0-8.3,6.8-15.1,15.1-15.1
				S-264,190.3-263.9,198.6C-264,198.6-264,198.6-263.9,198.6L-263.9,198.6z"/>
			<rect id="XMLID_205_" x="-364.9" y="266.3" width="71.5" height="3.7"/>
			<rect id="XMLID_204_" x="-265.7" y="266.3" width="71.5" height="3.7"/>
			<rect id="XMLID_203_" x="-346.9" y="280.1" width="53.5" height="3.7"/>
			<rect id="XMLID_202_" x="-265.7" y="280.1" width="54.5" height="3.7"/>
			<rect id="XMLID_201_" x="-346.9" y="357.1" width="53.5" height="3.7"/>
			<rect id="XMLID_200_" x="-265.7" y="357.1" width="54.5" height="3.7"/>
			<rect id="XMLID_199_" x="-292.3" y="260.1" width="26.8" height="3.7"/>
			<rect id="XMLID_198_" x="-340.4" y="234.6" width="47" height="3.7"/>
			<rect id="XMLID_197_" x="-265.7" y="234.6" width="48" height="3.7"/>
			<rect id="XMLID_196_" x="-292.3" y="228.4" width="26.8" height="3.7"/>
			<rect id="XMLID_195_" x="-286.1" y="239.6" width="3.7" height="13.1"/>
			<rect id="XMLID_193_" x="-275.7" y="239.6" width="3.7" height="13.1"/>
			<rect id="XMLID_192_" x="-227.9" y="255.9" width="3.7" height="7.9"/>
			<rect id="XMLID_190_" x="-238.4" y="255.9" width="3.7" height="7.9"/>
			<rect id="XMLID_189_" x="-217.4" y="255.9" width="3.7" height="7.9"/>
			<rect id="XMLID_188_" x="-207" y="255.9" width="3.7" height="7.9"/>
			<rect id="XMLID_187_" x="-204" y="278.2" width="3.7" height="7.8"/>
			<rect id="XMLID_185_" x="-204" y="290.8" width="3.7" height="7.9"/>
			<rect id="XMLID_184_" x="-204" y="303.5" width="3.7" height="7.9"/>
			<rect id="XMLID_182_" x="-204" y="316.1" width="3.7" height="7.9"/>
			<rect id="XMLID_181_" x="-204" y="328.7" width="3.7" height="7.9"/>
			<rect id="XMLID_179_" x="-204" y="341.3" width="3.7" height="7.9"/>
			<rect id="XMLID_178_" x="-204" y="353.9" width="3.7" height="7.9"/>
			<rect id="XMLID_177_" x="-357.7" y="278.2" width="3.7" height="7.8"/>
			<rect id="XMLID_176_" x="-357.7" y="290.8" width="3.7" height="7.9"/>
			<rect id="XMLID_175_" x="-357.7" y="303.5" width="3.7" height="7.9"/>
			<rect id="XMLID_174_" x="-357.7" y="316.1" width="3.7" height="7.9"/>
			<rect id="XMLID_173_" x="-357.7" y="328.7" width="3.7" height="7.9"/>
			<rect id="XMLID_172_" x="-357.7" y="341.3" width="3.7" height="7.9"/>
			<rect id="XMLID_171_" x="-357.7" y="353.9" width="3.7" height="7.9"/>
			<rect id="XMLID_170_" x="-248.8" y="255.9" width="3.7" height="7.9"/>
			<rect id="XMLID_169_" x="-259.3" y="255.9" width="3.7" height="7.9"/>
			<rect id="XMLID_168_" x="-227.9" y="243.3" width="3.7" height="7.9"/>
			<rect id="XMLID_167_" x="-238.4" y="243.3" width="3.7" height="7.9"/>
			<rect id="XMLID_166_" x="-248.8" y="243.3" width="3.7" height="7.9"/>
			<rect id="XMLID_165_" x="-259.3" y="243.3" width="3.7" height="7.9"/>
			<rect id="XMLID_164_" x="-334.1" y="255.9" width="3.7" height="7.9"/>
			<rect id="XMLID_163_" x="-323.7" y="255.9" width="3.7" height="7.9"/>
			<rect id="XMLID_162_" x="-344.6" y="255.9" width="3.7" height="7.9"/>
			<rect id="XMLID_161_" x="-355.1" y="255.9" width="3.7" height="7.9"/>
			<rect id="XMLID_160_" x="-313.2" y="255.9" width="3.7" height="7.9"/>
			<rect id="XMLID_159_" x="-302.7" y="255.9" width="3.7" height="7.9"/>
			<rect id="XMLID_158_" x="-334.1" y="243.3" width="3.7" height="7.9"/>
			<rect id="XMLID_157_" x="-323.7" y="243.3" width="3.7" height="7.9"/>
			<rect id="XMLID_156_" x="-313.2" y="243.3" width="3.7" height="7.9"/>
			<rect id="XMLID_155_" x="-302.7" y="243.3" width="3.7" height="7.9"/>
			<rect id="XMLID_154_" x="-213" y="268.1" width="3.7" height="103.2"/>
			<rect id="XMLID_153_" x="-348.7" y="268.1" width="3.7" height="103.2"/>
		</g>
	</g>
</g>
<g id="Layer_4">
	<g id="Layer_2_4_">
		<g id="content_2_3_">
			<rect id="XMLID_329_" x="-254.8" y="306.9" width="2.8" height="28.7"/>
			<rect id="XMLID_328_" x="-280.7" y="251.5" width="2.8" height="16.3"/>
			<rect id="XMLID_327_" x="-233.9" y="304.3" width="2.8" height="46.4"/>
			<rect id="XMLID_326_" x="-215.2" y="299.2" width="2.8" height="46.1"/>
			<rect id="XMLID_325_" x="-205.8" y="290.9" width="2.8" height="46.6"/>
			<path id="XMLID_324_" d="M-203.5,222.6h-2.8c0-7.6-6.2-13.8-13.8-13.8h-34.8c-7.6,0-13.8,6.2-13.8,13.8h-2.8
				c0-9.2,7.4-16.6,16.6-16.6h34.8C-210.9,206-203.5,213.4-203.5,222.6z"/>
			<path id="XMLID_323_" d="M-203.5,222.6h-2.8c0-3-5.7-6.2-13.8-6.2h-34.8c-8.1,0-13.8,3.3-13.8,6.2h-2.8c0-5,7.3-9,16.6-9h34.8
				C-210.8,213.7-203.5,217.6-203.5,222.6z"/>
			<rect id="XMLID_322_" x="-270.1" y="221.3" width="65.3" height="2.8"/>
			<path id="XMLID_321_" d="M-220.1,231.7h-34.8c-9.3,0-16.6-4-16.6-9h2.8c0,3,5.7,6.2,13.8,6.2h34.8c8.1,0,13.8-3.3,13.8-6.2h2.8
				C-203.5,227.7-210.8,231.7-220.1,231.7z"/>
			<path id="XMLID_320_" d="M-220.1,239.3h-34.8c-9.2,0-16.6-7.4-16.6-16.6h2.8c0,7.6,6.2,13.8,13.8,13.8h34.8
				c7.6,0,13.8-6.2,13.8-13.8h2.8C-203.5,231.8-210.9,239.3-220.1,239.3z"/>
			<polygon id="XMLID_319_" points="-269.9,221.3 -278.5,221.3 -278.5,208.1 -268.4,208.1 -265.2,211.4 -267.1,213.4 -269.7,210.9 
				-275.7,210.9 -275.7,218.5 -269.9,218.5 			"/>
			<polygon id="XMLID_318_" points="-268.4,238.3 -278.5,238.3 -278.5,225.1 -270.1,225.1 -270.1,227.9 -275.7,227.9 -275.7,235.5 
				-269.7,235.5 -266.6,232.4 -264.6,234.4 			"/>
			<path id="XMLID_317_" d="M-251,254.8h-2.8V215c0-6.4,4.6-8.7,4.8-8.9l1.3,2.5c-0.2,0.1-3.3,1.7-3.3,6.4V254.8z"/>
			<path id="XMLID_316_" d="M-236.1,243.7h-2.8V215c0-6.4,4.6-8.7,4.8-8.9l1.2,2.5l-0.6-1.3l0.6,1.2c-0.2,0.1-3.3,1.7-3.3,6.4
				L-236.1,243.7L-236.1,243.7z"/>
			<rect id="XMLID_315_" x="-223.8" y="237.8" width="2.8" height="11.6"/>
			<rect id="XMLID_314_" x="-280.4" y="309.5" width="2.8" height="45.1"/>
			<rect id="XMLID_313_" x="-306.1" y="306.9" width="2.8" height="29.8"/>
			<rect id="XMLID_312_" x="-280.7" y="273.8" width="2.8" height="79.3"/>
			<rect id="XMLID_311_" x="-326.9" y="304.3" width="2.8" height="46.4"/>
			<rect id="XMLID_310_" x="-345.6" y="299.2" width="2.8" height="46.1"/>
			<rect id="XMLID_309_" x="-355" y="290.9" width="2.8" height="46.6"/>
			<path id="XMLID_308_" d="M-279,356c-36.9,0-76-6.5-76-18.5h2.8c0,7.4,30.1,15.7,73.2,15.7s73.2-8.3,73.2-15.7h2.8
				c0,6.8-12.5,11.1-22.9,13.4C-240.2,354.2-259,356-279,356z"/>
			<path id="XMLID_307_" d="M-279,344.4c-36.9,0-76-6.5-76-18.5h2.8c0,7.4,30.1,15.7,73.2,15.7s73.2-8.3,73.2-15.7h2.8
				c0,6.8-12.5,11.1-22.9,13.4C-240.2,342.6-259,344.4-279,344.4z"/>
			<path id="XMLID_306_" d="M-228.9,304.9c-13.7-2.9-31.5-4.5-50.1-4.5c-18.6,0-36.4,1.6-50.1,4.5l-0.6-2.7
				c13.8-2.9,31.8-4.5,50.6-4.5c18.8,0,36.8,1.6,50.6,4.5L-228.9,304.9z"/>
			<path id="XMLID_305_" d="M-279,332.7c-36.9,0-76-6.5-76-18.5h2.8c0,7.4,30.1,15.7,73.2,15.7s73.2-8.3,73.2-15.7h2.8
				c0,6.8-12.5,11.1-22.9,13.4C-240.2,330.9-259,332.7-279,332.7z"/>
			<path id="XMLID_304_" d="M-210.6,298.6c-11.3-6.4-38.1-10.5-68.4-10.5s-57.1,4.1-68.4,10.5l-1.4-2.4
				c11.7-6.5,39.1-10.8,69.8-10.8s58.1,4.3,69.8,10.8L-210.6,298.6z"/>
			<path id="XMLID_303_" d="M-279,321c-36.9,0-76-6.5-76-18.5h2.8c0,7.4,30.1,15.7,73.2,15.7s73.2-8.3,73.2-15.7h2.8
				c0,6.8-12.5,11.1-22.9,13.4C-240.2,319.2-259,321-279,321z"/>
			<path d="M-279,309.4c-36.9,0-76-6.5-76-18.5c0-6.8,12.5-11.1,22.9-13.4c14.2-3.3,33.1-5,53-5c36.9,0,76,6.5,76,18.5
				c0,6.8-12.5,11.1-22.9,13.4C-240.2,307.6-259,309.4-279,309.4z M-279,275.1c-43.2,0-73.2,8.3-73.2,15.7s30.1,15.7,73.2,15.7
				s73.2-8.3,73.2-15.7S-235.8,275.1-279,275.1z"/>
			<rect id="XMLID_300_" x="-316.3" y="331" class="st3" width="74.6" height="23.6"/>
			<path d="M-240.3,356h-77.4v-26.4h77.4V356z M-314.9,353.2h71.8v-20.8h-71.8V353.2z"/>
			<rect id="XMLID_297_" x="-311.3" y="335.9" class="st3" width="64.7" height="18.6"/>
			<path d="M-245.3,356h-67.5v-21.4h67.5V356z M-309.9,353.2h61.9v-15.8h-61.9V353.2z"/>
			<rect id="XMLID_294_" x="-280.4" y="335.9" width="2.8" height="18.6"/>
			<rect id="XMLID_293_" x="-264.3" y="335.9" width="2.8" height="18.6"/>
			<rect id="XMLID_292_" x="-296.6" y="335.9" width="2.8" height="18.6"/>
			<path id="XMLID_291_" d="M-261.8,308.6l-2.1-1.8c7.7-9,12.8-20,14.6-31.7l2.7,0.5C-248.5,287.8-253.8,299.2-261.8,308.6z"/>
			<path id="XMLID_290_" d="M-242,307l-1.5-2.4c12.5-8.5,20.4-17.8,20.9-24.8l2.8,0.2C-220.5,288.1-228.5,297.9-242,307z"/>
			<path id="XMLID_289_" d="M-296.6,308.4c-8-9.3-13.2-20.7-15.1-32.9l2.8-0.5c1.8,11.6,6.8,22.6,14.5,31.5L-296.6,308.4z"/>
			<path id="XMLID_288_" d="M-316.4,306.9c-13.4-9.1-21.4-18.9-22-26.8l2.8-0.2c0.5,7,8.3,16.2,20.8,24.7L-316.4,306.9z"/>
			<path d="M-335.6,280h-2.8v-26.8h19.4v13.5h-16.6V280z M-335.6,264h13.8v-8h-13.8V264z"/>
			<path d="M-219.9,280h-2.8v-26.8h19.4v13.5h-16.6V280z M-219.9,264h13.8v-8h-13.8V264z"/>
			<polygon id="XMLID_283_" points="-258.9,274.3 -261.8,274.3 -261.8,269.2 -296.2,269.2 -296.2,274.3 -299.1,274.3 -299.1,266.4 
				-258.9,266.4 			"/>
			<path d="M-258.9,269.2h-40.1V250h40.1C-258.9,250-258.9,269.2-258.9,269.2z M-296.2,266.4h34.5v-13.7h-34.5V266.4z"/>
			<path d="M-266.7,264.4h-6.9v-9.2h6.9V264.4z M-271.6,262.4h3v-5.2h-3V262.4z"/>
			<path d="M-284.9,264.4h-6.9v-9.2h6.9V264.4z M-289.8,262.4h3v-5.2h-3V262.4z"/>
		</g>
	</g>
</g>
<g id="Layer_5" class="st0">
	<g id="Layer_2_5_" class="st1">
		<g id="content_2_4_">
			<path id="XMLID_393_" d="M-360.8,260.3c-8.6,0-15.6-7-15.6-15.6v-28.3h31.1v28.3C-345.2,253.3-352.2,260.3-360.8,260.3z
				 M-372.5,220.3v24.4c-0.2,6.5,4.9,11.8,11.4,12c6.5,0.2,11.8-4.9,12-11.4c0-0.2,0-0.4,0-0.7v-24.3H-372.5z"/>
			<path id="XMLID_389_" d="M-333.5,260.3c-8.6,0-15.6-7-15.6-15.6v-28.3h31.1v28.3C-318,253.3-324.9,260.3-333.5,260.3z
				 M-345.2,220.3v24.4c-0.2,6.5,4.9,11.8,11.4,12c6.5,0.2,11.8-4.9,12-11.4c0-0.2,0-0.4,0-0.7v-24.3H-345.2z"/>
			<path id="XMLID_386_" d="M-306.3,260.3c-8.6,0-15.6-7-15.6-15.6v-28.3h31.1v28.3C-290.7,253.3-297.7,260.3-306.3,260.3z
				 M-318,220.3v24.4c0,6.5,5.2,11.7,11.7,11.7s11.7-5.2,11.7-11.7v-24.4H-318z"/>
			<path id="XMLID_382_" d="M-279,260.3c-8.6,0-15.5-7-15.6-15.6v-28.3h31.1v28.3C-263.4,253.3-270.4,260.3-279,260.3z
				 M-290.7,220.3v24.4c-0.2,6.5,4.9,11.8,11.4,12c6.5,0.2,11.8-4.9,12-11.4c0-0.2,0-0.4,0-0.7v-24.3H-290.7z"/>
			<path id="XMLID_379_" d="M-251.8,260.3c-8.6,0-15.5-7-15.6-15.6v-28.3h31.1v28.3C-236.2,253.3-243.2,260.3-251.8,260.3z
				 M-263.4,220.3v24.4c-0.2,6.5,4.9,11.8,11.4,12c6.5,0.2,11.8-4.9,12-11.4c0-0.2,0-0.4,0-0.7v-24.3H-263.4z"/>
			<path id="XMLID_375_" d="M-224.5,260.3c-8.6,0-15.5-7-15.6-15.6v-28.3h31.1v28.3C-208.9,253.3-215.9,260.3-224.5,260.3z
				 M-236.2,220.3v24.4c-0.2,6.5,4.9,11.8,11.4,12c6.5,0.2,11.8-4.9,12-11.4c0-0.2,0-0.4,0-0.7v-24.3H-236.2z"/>
			<path id="XMLID_371_" d="M-197.2,260.3c-8.6,0-15.6-7-15.6-15.6v-28.3h31.1v28.3C-181.7,253.3-188.6,260.3-197.2,260.3z
				 M-208.9,220.3v24.4c-0.2,6.5,4.9,11.8,11.4,12c6.5,0.2,11.8-4.9,12-11.4c0-0.2,0-0.4,0-0.7v-24.3H-208.9z"/>
			<polygon id="XMLID_370_" points="-184.4,374.8 -373.6,374.8 -373.6,252.7 -369.7,252.7 -369.7,370.9 -188.3,370.9 -188.3,252.9 
				-184.4,252.9 			"/>
			<polygon id="XMLID_369_" points="-345.2,218.4 -349.1,218.4 -349.1,215.2 -347.4,203.6 -343.6,204.1 -345.2,215.6 			"/>
			<polygon id="XMLID_368_" points="-318,218.4 -321.8,218.4 -321.8,215.3 -320.9,203.7 -317,204 -318,215.5 			"/>
			<polygon id="XMLID_367_" points="-290.7,218.4 -294.6,218.4 -294.6,215.5 -294.2,203.8 -290.4,203.9 -290.7,215.5 			"/>
			<polygon id="XMLID_366_" points="-263.4,218.4 -267.3,218.4 -267.3,215.5 -267.6,203.9 -263.8,203.8 -263.4,215.4 			"/>
			<polygon id="XMLID_364_" points="-236.2,218.4 -240.1,218.4 -240.1,215.5 -241,204 -237.2,203.7 -236.2,215.5 			"/>
			<polygon id="XMLID_363_" points="-208.9,218.4 -212.8,218.4 -212.8,215.6 -214.4,204.1 -210.6,203.6 -208.9,215.5 			"/>
			<polygon id="XMLID_362_" points="-181.7,218.4 -185.5,218.4 -185.5,215.7 -187.5,205.8 -370.5,205.8 -372.5,215.7 -372.5,218.4 
				-376.3,218.4 -376.3,215.1 -373.7,201.9 -184.3,201.9 -181.7,215.5 			"/>
			<polygon id="XMLID_361_" points="-184.4,203.8 -188.3,203.8 -188.3,184.9 -369.7,184.9 -369.7,203.8 -373.6,203.8 -373.6,181 
				-184.4,181 			"/>
			<path id="XMLID_357_" d="M-297.9,372.9h-58.5v-91.2h58.4v91.2H-297.9z M-352.4,369h50.6v-83.5h-50.7L-352.4,369z"/>
			<rect id="XMLID_356_" x="-329.1" y="283.6" width="3.9" height="87.4"/>
			<path id="XMLID_352_" d="M-201.7,333.9h-73.2v-52.3h73.2V333.9z M-271,330h65.5v-44.5H-271V330z"/>
			<rect id="XMLID_351_" x="-354.4" y="289.1" width="54.5" height="3.9"/>
			<rect id="XMLID_350_" x="-272.6" y="289.1" width="69.1" height="3.9"/>
			<rect id="XMLID_349_" x="-321.8" y="325.9" width="3.9" height="9.3"/>
			<rect id="XMLID_348_" x="-336.4" y="325.9" width="3.9" height="9.3"/>
			<rect id="XMLID_347_" x="-273" y="358.9" width="69.4" height="3.9"/>
			<rect id="XMLID_346_" x="-216.4" y="360.8" width="3.9" height="20.2"/>
			<rect id="XMLID_345_" x="-262.9" y="360.8" width="3.9" height="20.2"/>
			
				<rect id="XMLID_344_" x="-373.5" y="241.6" transform="matrix(0.7071 -0.7071 0.7071 0.7071 -277.0676 -181.8262)" width="30.9" height="3.9"/>
			
				<rect id="XMLID_343_" x="-345.9" y="241.6" transform="matrix(0.7071 -0.7071 0.7071 0.7071 -269.0125 -162.3358)" width="30.9" height="3.9"/>
			
				<rect id="XMLID_341_" x="-319" y="241.6" transform="matrix(0.7071 -0.7071 0.7071 0.7071 -261.144 -143.3181)" width="30.9" height="3.9"/>
			
				<rect id="XMLID_340_" x="-291.8" y="241.6" transform="matrix(0.7071 -0.7071 0.7071 0.7071 -253.1715 -124.0785)" width="30.9" height="3.9"/>
			
				<rect id="XMLID_338_" x="-264.6" y="241.6" transform="matrix(0.7071 -0.7071 0.7071 0.7071 -245.2029 -104.8485)" width="30.9" height="3.9"/>
			
				<rect id="XMLID_337_" x="-237.4" y="241.6" transform="matrix(0.7071 -0.7071 0.7071 0.7071 -237.2303 -85.6088)" width="30.9" height="3.9"/>
			
				<rect id="XMLID_335_" x="-210.2" y="241.6" transform="matrix(0.7071 -0.7071 0.7071 0.7071 -229.2715 -66.3691)" width="30.9" height="3.9"/>
			<rect id="XMLID_334_" x="-371.7" y="189.2" width="185.3" height="3.9"/>
			<rect id="XMLID_332_" x="-240.1" y="284.3" width="3.9" height="47.9"/>
		</g>
	</g>
</g>
</svg>
