<?xml version="1.0" encoding="utf-8"?>
<!-- Generator: Adobe Illustrator 19.0.0, SVG Export Plug-In . SVG Version: 6.00 Build 0)  -->
<svg version="1.1" id="Layer_1" xmlns="http://www.w3.org/2000/svg" xmlns:xlink="http://www.w3.org/1999/xlink" x="0px" y="0px"
	 viewBox="-379 181 200 200" style="enable-background:new -379 181 200 200;" xml:space="preserve">
<style type="text/css">
	.st0{display:none;}
	.st1{display:inline;}
	.st2{fill:#FFFFFF;stroke:#000000;stroke-width:2.8369;stroke-miterlimit:10;}
	.st3{fill:#FFFFFF;}
</style>
<g id="Layer_1_1_" class="st0">
	<g id="Layer_2" class="st1">
		<g id="content_2">
			<path d="M-226,381h-106V223.9h106V381z M-328.2,377.2h98.3V227.7h-98.3V377.2z"/>
			<path d="M-244.3,227.7h-69.4v-14h69.5L-244.3,227.7z M-309.9,223.9h61.8v-6.4h-61.8V223.9z"/>
			<path d="M-328.2,381h-34.5V244.4h34.5V381z M-358.8,377.2h26.8v-129h-26.8V377.2z"/>
			<path d="M-195.3,381h-34.5V244.4h34.5V381z M-226,377.2h26.8v-129H-226V377.2z"/>
			<rect id="XMLID_105_" x="-280.9" y="189.1" width="3.8" height="20.4"/>
			<rect id="XMLID_104_" x="-289.2" y="197.3" width="20.4" height="3.8"/>
			<path d="M-259.2,381h-39.6v-29.4h39.6C-259.2,351.6-259.2,381-259.2,381z M-295,377.2h32v-21.7h-32V377.2z"/>
			<rect id="XMLID_101_" x="-220" y="257.4" width="3.8" height="13.6"/>
			<rect id="XMLID_100_" x="-220" y="276.8" width="3.8" height="13.6"/>
			<rect id="XMLID_99_" x="-220" y="296.2" width="3.8" height="13.6"/>
			<rect id="XMLID_98_" x="-220" y="315.6" width="3.8" height="13.6"/>
			<rect id="XMLID_97_" x="-220" y="335" width="3.8" height="13.6"/>
			<rect id="XMLID_96_" x="-220" y="354.4" width="3.8" height="13.6"/>
			<rect id="XMLID_95_" x="-209.1" y="257.4" width="3.8" height="13.6"/>
			<rect id="XMLID_94_" x="-209.1" y="276.8" width="3.8" height="13.6"/>
			<rect id="XMLID_93_" x="-209.1" y="296.2" width="3.8" height="13.6"/>
			<rect id="XMLID_92_" x="-209.1" y="315.6" width="3.8" height="13.6"/>
			<rect id="XMLID_91_" x="-209.1" y="335" width="3.8" height="13.6"/>
			<rect id="XMLID_90_" x="-209.1" y="354.4" width="3.8" height="13.6"/>
			<rect id="XMLID_89_" x="-352.8" y="257.4" width="3.8" height="13.6"/>
			<rect id="XMLID_88_" x="-352.8" y="276.8" width="3.8" height="13.6"/>
			<rect id="XMLID_87_" x="-352.8" y="296.2" width="3.8" height="13.6"/>
			<rect id="XMLID_86_" x="-352.8" y="315.6" width="3.8" height="13.6"/>
			<rect id="XMLID_85_" x="-352.8" y="335" width="3.8" height="13.6"/>
			<rect id="XMLID_84_" x="-352.8" y="354.4" width="3.8" height="13.6"/>
			<rect id="XMLID_83_" x="-341.9" y="257.4" width="3.8" height="13.6"/>
			<rect id="XMLID_82_" x="-341.9" y="276.8" width="3.8" height="13.6"/>
			<rect id="XMLID_81_" x="-341.9" y="296.2" width="3.8" height="13.6"/>
			<rect id="XMLID_80_" x="-341.9" y="315.6" width="3.8" height="13.6"/>
			<rect id="XMLID_79_" x="-341.9" y="335" width="3.8" height="13.6"/>
			<rect id="XMLID_78_" x="-341.9" y="354.4" width="3.8" height="13.6"/>
			<rect id="XMLID_77_" x="-253.7" y="235.9" width="3.8" height="13.6"/>
			<rect id="XMLID_76_" x="-253.7" y="255.3" width="3.8" height="13.6"/>
			<rect id="XMLID_75_" x="-253.7" y="274.7" width="3.8" height="13.6"/>
			<rect id="XMLID_74_" x="-253.7" y="294.1" width="3.8" height="13.6"/>
			<rect id="XMLID_73_" x="-253.7" y="313.5" width="3.8" height="13.6"/>
			<rect id="XMLID_72_" x="-253.7" y="332.9" width="3.8" height="13.6"/>
			<rect id="XMLID_71_" x="-242.8" y="235.9" width="3.8" height="13.6"/>
			<rect id="XMLID_70_" x="-242.8" y="255.3" width="3.8" height="13.6"/>
			<rect id="XMLID_69_" x="-242.8" y="274.7" width="3.8" height="13.6"/>
			<rect id="XMLID_68_" x="-242.8" y="294.1" width="3.8" height="13.6"/>
			<rect id="XMLID_67_" x="-242.8" y="313.5" width="3.8" height="13.6"/>
			<rect id="XMLID_66_" x="-242.8" y="332.9" width="3.8" height="13.6"/>
			<rect id="XMLID_65_" x="-264.6" y="235.9" width="3.8" height="13.6"/>
			<rect id="XMLID_64_" x="-264.6" y="255.3" width="3.8" height="13.6"/>
			<rect id="XMLID_63_" x="-264.6" y="274.7" width="3.8" height="13.6"/>
			<rect id="XMLID_62_" x="-264.6" y="294.1" width="3.8" height="13.6"/>
			<rect id="XMLID_61_" x="-264.6" y="313.5" width="3.8" height="13.6"/>
			<rect id="XMLID_60_" x="-264.6" y="332.9" width="3.8" height="13.6"/>
			<rect id="XMLID_59_" x="-275.5" y="235.9" width="3.8" height="13.6"/>
			<rect id="XMLID_58_" x="-275.5" y="255.3" width="3.8" height="13.6"/>
			<rect id="XMLID_57_" x="-275.5" y="274.7" width="3.8" height="13.6"/>
			<rect id="XMLID_56_" x="-275.5" y="294.1" width="3.8" height="13.6"/>
			<rect id="XMLID_55_" x="-275.5" y="313.5" width="3.8" height="13.6"/>
			<rect id="XMLID_54_" x="-275.5" y="332.9" width="3.8" height="13.6"/>
			<rect id="XMLID_53_" x="-286.4" y="235.9" width="3.8" height="13.6"/>
			<rect id="XMLID_52_" x="-286.4" y="255.3" width="3.8" height="13.6"/>
			<rect id="XMLID_51_" x="-286.4" y="274.7" width="3.8" height="13.6"/>
			<rect id="XMLID_50_" x="-286.4" y="294.1" width="3.8" height="13.6"/>
			<rect id="XMLID_49_" x="-286.4" y="313.5" width="3.8" height="13.6"/>
			<rect id="XMLID_48_" x="-286.4" y="332.9" width="3.8" height="13.6"/>
			<rect id="XMLID_47_" x="-297.3" y="235.9" width="3.8" height="13.6"/>
			<rect id="XMLID_46_" x="-297.3" y="255.3" width="3.8" height="13.6"/>
			<rect id="XMLID_45_" x="-297.3" y="274.7" width="3.8" height="13.6"/>
			<rect id="XMLID_44_" x="-297.3" y="294.1" width="3.8" height="13.6"/>
			<rect id="XMLID_43_" x="-297.3" y="313.5" width="3.8" height="13.6"/>
			<rect id="XMLID_42_" x="-297.3" y="332.9" width="3.8" height="13.6"/>
			<rect id="XMLID_41_" x="-308.2" y="235.9" width="3.8" height="13.6"/>
			<rect id="XMLID_40_" x="-308.2" y="255.3" width="3.8" height="13.6"/>
			<rect id="XMLID_39_" x="-308.2" y="274.7" width="3.8" height="13.6"/>
			<rect id="XMLID_38_" x="-308.2" y="294.1" width="3.8" height="13.6"/>
			<rect id="XMLID_37_" x="-308.2" y="313.5" width="3.8" height="13.6"/>
			<rect id="XMLID_36_" x="-308.2" y="332.9" width="3.8" height="13.6"/>
			<rect id="XMLID_35_" x="-319.1" y="235.9" width="3.8" height="13.6"/>
			<rect id="XMLID_34_" x="-319.1" y="255.3" width="3.8" height="13.6"/>
			<rect id="XMLID_33_" x="-319.1" y="274.7" width="3.8" height="13.6"/>
			<rect id="XMLID_32_" x="-319.1" y="294.1" width="3.8" height="13.6"/>
			<rect id="XMLID_31_" x="-319.1" y="313.5" width="3.8" height="13.6"/>
			<rect id="XMLID_30_" x="-319.1" y="332.9" width="3.8" height="13.6"/>
			<rect id="XMLID_29_" x="-280.9" y="353.5" width="3.8" height="25.5"/>
			<path d="M-251.5,217.5h-55V181h54.9v36.5H-251.5z M-302.6,213.7h47.2v-28.9h-47.2V213.7z"/>
		</g>
	</g>
</g>
<g id="Layer_2_1_" class="st0">
	<g id="Layer_2_2_" class="st1">
		<g id="content_2_1_">
			<rect id="XMLID_152_" x="-280.9" y="284.7" width="3.8" height="94.2"/>
			<path id="XMLID_194_" d="M-224.2,254.1h-109.7v-20.6c0-5.6,4.6-10.2,10.2-10.2h89.3c5.6,0,10.2,4.6,10.2,10.2V254.1z M-330,250.3
				h102v-16.8c0-3.5-2.8-6.4-6.3-6.4h-89.4c-3.5,0-6.4,2.8-6.4,6.4l0,0L-330,250.3z"/>
			<path id="XMLID_191_" d="M-279,381c-4.3,0-8.5-1.7-11.5-4.8l-48.6-48.5c-2.6-2.6-4-6-4-9.7v-18.8c0-0.9,0.1-1.8,0.3-2.7l9.4-46.2
				h109l9.5,46.2c0.2,0.9,0.3,1.8,0.3,2.7V318c0,3.6-1.4,7.1-4,9.7l-48.7,48.5C-270.5,379.3-274.7,381-279,381z M-330.4,254.1
				l-8.8,43.1c-0.1,0.6-0.2,1.3-0.2,1.9V318c0,2.6,1,5.1,2.9,7l48.6,48.5c4.9,4.9,12.8,4.9,17.7,0l48.6-48.5c1.8-1.9,2.9-4.4,2.9-7
				v-18.8c0-0.6-0.1-1.3-0.2-1.9l-8.8-43.1L-330.4,254.1z"/>
			<polygon id="XMLID_147_" points="-217.2,299.9 -279,286.7 -340.9,299.9 -341.7,296.1 -279,282.8 -216.4,296.1 			"/>
			<polygon id="XMLID_146_" points="-217.2,324.8 -279,311.6 -340.9,324.8 -341.7,321 -279,307.7 -216.4,321 			"/>
			<path id="XMLID_186_" d="M-255.4,226.5h-47.2l6.5-16c1.4-3.4,4.7-5.7,8.5-5.7h17.2c3.7,0,7.1,2.2,8.5,5.7L-255.4,226.5z
				 M-296.9,222.7h35.8l-4.4-10.8c-0.8-2-2.7-3.3-4.9-3.3h-17.2c-2.1,0-4.1,1.3-4.9,3.3L-296.9,222.7z"/>
			<path id="XMLID_183_" d="M-266.7,196.8h-25.2c-4.4,0-7.9-3.5-7.9-7.9c0-4.3,3.5-7.9,7.9-7.9h25.2c4.4,0,7.9,3.5,7.9,7.9
				C-258.8,193.3-262.4,196.8-266.7,196.8L-266.7,196.8z M-291.9,184.8c-2.2,0-4.1,1.8-4.1,4.1c0,2.2,1.8,4.1,4.1,4.1h25.2
				c2.2,0,4.1-1.8,4.1-4.1c0-2.3-1.8-4.1-4.1-4.1l0,0C-266.7,184.8-291.9,184.8-291.9,184.8z"/>
			<path id="XMLID_180_" d="M-269.4,207.7h-19.2v-14.1h19.2C-269.4,193.6-269.4,207.7-269.4,207.7z M-284.8,203.9h11.5v-6.4h-11.5
				V203.9z"/>
			<rect id="XMLID_139_" x="-323.7" y="223.3" width="89.3" height="3.8"/>
			<rect id="XMLID_138_" x="-332" y="236.8" width="105.5" height="3.8"/>
			<rect id="XMLID_137_" x="-332" y="250.3" width="105.9" height="3.8"/>
			<rect id="XMLID_136_" x="-280.9" y="225.2" width="3.8" height="13.5"/>
			<rect id="XMLID_135_" x="-299.2" y="238" width="3.8" height="13.5"/>
			<rect id="XMLID_134_" x="-310.1" y="225.2" width="3.8" height="13.5"/>
			<rect id="XMLID_133_" x="-251.7" y="225.2" width="3.8" height="13.5"/>
			<rect id="XMLID_132_" x="-262.7" y="238" width="3.8" height="13.5"/>
			<rect id="XMLID_131_" x="-285.8" y="261" width="13.5" height="3.8"/>
			<rect id="XMLID_130_" x="-306.1" y="262.4" width="13.5" height="3.8"/>
			<rect id="XMLID_129_" x="-265.4" y="262.4" width="13.5" height="3.8"/>
			<path id="XMLID_128_" d="M-278.3,363.3l-0.8-3.7c28.4-6,47.7-24.6,47.9-24.7l2.7,2.7C-229.4,338.4-248.8,357.1-278.3,363.3z"/>
			<path id="XMLID_127_" d="M-279.6,363.3c-29.5-6.3-49-25-49.8-25.8l2.7-2.7c0.2,0.2,19.5,18.7,47.9,24.7L-279.6,363.3z"/>
			<path id="XMLID_126_" d="M-243.7,334.4c-0.1,0-0.3,0-0.4,0l-9.4-2c-1-0.2-1.7-1.2-1.5-2.2c0.2-1,1.2-1.7,2.2-1.5c0,0,0,0,0.1,0
				l9.4,2c1,0.2,1.7,1.3,1.4,2.3C-242.1,333.8-242.8,334.4-243.7,334.4L-243.7,334.4z"/>
			<path id="XMLID_125_" d="M-314.3,334.4c-1.1,0-1.9-0.9-1.9-1.9c0-0.9,0.6-1.6,1.5-1.8l9.4-2c1-0.2,2,0.5,2.2,1.6
				c0.2,1-0.4,1.9-1.4,2.2l-9.4,2C-314,334.4-314.2,334.4-314.3,334.4z"/>
			<rect id="XMLID_124_" x="-266.3" y="286.9" width="3.8" height="25.5"/>
			<rect id="XMLID_123_" x="-295.5" y="286.9" width="3.8" height="25.5"/>
			
				<rect id="XMLID_122_" x="-242.2" y="278.4" transform="matrix(0.2083 -0.9781 0.9781 0.2083 -486.0515 4.4745)" width="3.8" height="48.1"/>
			
				<rect id="XMLID_121_" x="-341.8" y="300.6" transform="matrix(0.9781 -0.2083 0.2083 0.9781 -69.9748 -59.5229)" width="48.4" height="3.8"/>
			<rect id="XMLID_120_" x="-326.5" y="264.4" width="13.5" height="3.8"/>
			<rect id="XMLID_119_" x="-245" y="264.4" width="13.5" height="3.8"/>
			<rect id="XMLID_118_" x="-285.8" y="273.2" width="13.5" height="3.8"/>
			<rect id="XMLID_117_" x="-306.1" y="274.6" width="13.5" height="3.8"/>
			<rect id="XMLID_116_" x="-265.4" y="274.6" width="13.5" height="3.8"/>
			<rect id="XMLID_115_" x="-326.5" y="276.6" width="13.5" height="3.8"/>
			<rect id="XMLID_114_" x="-245" y="276.6" width="13.5" height="3.8"/>
		</g>
	</g>
</g>
<g id="Layer_3">
	<g id="Layer_2_3_">
		<g id="content_2_2_">
			<polygon id="XMLID_276_" points="-211.5,352.7 -346.5,352.7 -346.5,257.8 -343.6,257.8 -343.6,349.8 -214.4,349.8 -214.4,257.8 
				-211.5,257.8 			"/>
			<rect id="XMLID_275_" x="-308.2" y="346.5" class="st2" width="58.2" height="9.5"/>
			<path id="XMLID_404_" d="M-299.6,347.6c-0.5,0-1-0.5-1-1v-6.1c0-0.5,0.5-1,1-1s1,0.5,1,1v6.1
				C-298.6,347.2-299.1,347.6-299.6,347.6L-299.6,347.6z M-299.6,338.5c-0.5,0-1-0.5-1-1v-6.1c0-0.5,0.5-1,1-1s1,0.5,1,1l0,0v6.1
				C-298.6,338.1-299.1,338.5-299.6,338.5L-299.6,338.5z M-299.6,329.5c-0.5,0-1-0.5-1-1v-6c0-0.5,0.5-1,1-1s1,0.5,1,1v6
				C-298.6,329-299.1,329.5-299.6,329.5L-299.6,329.5z M-299.6,320.4c-0.5,0-1-0.5-1-1v-3.1c0-0.5,0.5-1,1-1s1,0.5,1,1v3.1
				C-298.6,319.9-299.1,320.4-299.6,320.4L-299.6,320.4L-299.6,320.4z"/>
			<path id="XMLID_398_" d="M-294.5,347.6c-0.5,0-1-0.5-1-1v-6.1c0.1-0.5,0.5-1,1.1-0.9c0.5,0.1,0.8,0.5,0.9,0.9v6.1
				C-293.5,347.2-293.9,347.6-294.5,347.6z M-294.5,338.5c-0.5,0-1-0.5-1-1v-6.1c-0.1-0.5,0.4-1.1,0.9-1.1c0.5-0.1,1.1,0.4,1.1,0.9
				c0,0.1,0,0.1,0,0.2v6.1C-293.5,338.1-293.9,338.5-294.5,338.5z M-294.5,329.5c-0.5,0-1-0.5-1-1l0,0v-6c-0.1-0.5,0.4-1.1,0.9-1.1
				c0.5-0.1,1.1,0.4,1.1,0.9c0,0.1,0,0.1,0,0.2v6C-293.5,329-293.9,329.5-294.5,329.5L-294.5,329.5z M-294.5,320.4c-0.5,0-1-0.5-1-1
				l0,0v-6c-0.1-0.5,0.4-1.1,0.9-1.1c0.5-0.1,1.1,0.4,1.1,0.9c0,0.1,0,0.1,0,0.2v6C-293.5,319.9-293.9,320.4-294.5,320.4
				L-294.5,320.4L-294.5,320.4z M-294.5,311.4c-0.5,0-1-0.5-1-1v-6.1c0.1-0.5,0.5-1,1.1-0.9c0.5,0.1,0.8,0.5,0.9,0.9v6.1
				C-293.5,310.9-293.9,311.3-294.5,311.4L-294.5,311.4z"/>
			<path id="XMLID_391_" d="M-289.3,347.6c-0.5,0-1-0.5-1-1v-6.1c0-0.5,0.5-1,1-1c0.5,0,1,0.5,1,1v6.1
				C-288.3,347.2-288.8,347.6-289.3,347.6z M-289.3,338.5c-0.5,0-1-0.5-1-1v-6.1c0-0.5,0.5-1,1-1c0.5,0,1,0.5,1,1l0,0v6.1
				C-288.3,338.1-288.8,338.5-289.3,338.5z M-289.3,329.5c-0.5,0-1-0.5-1-1v-6c0-0.5,0.5-1,1-1c0.5,0,1,0.5,1,1v6
				C-288.3,329-288.8,329.5-289.3,329.5z M-289.3,320.4c-0.5,0-1-0.5-1-1v-6c0-0.5,0.5-1,1-1c0.5,0,1,0.5,1,1v6
				C-288.3,319.9-288.8,320.4-289.3,320.4L-289.3,320.4L-289.3,320.4z M-289.3,311.4c-0.5,0-1-0.5-1-1v-6.1c0-0.5,0.5-1,1-1
				c0.5,0,1,0.5,1,1v6.1C-288.3,310.9-288.8,311.3-289.3,311.4L-289.3,311.4z M-289.3,302.3c-0.5,0-1-0.5-1-1V296c0-0.5,0.5-1,1-1
				c0.5,0,1,0.5,1,1v5.3C-288.3,301.8-288.8,302.3-289.3,302.3L-289.3,302.3z"/>
			<path id="XMLID_385_" d="M-284.2,347.6c-0.5,0-1-0.5-1-1v-6.1c0-0.5,0.5-1,1-1c0.5,0,1,0.5,1,1v6.1
				C-283.2,347.2-283.6,347.6-284.2,347.6z M-284.2,338.5c-0.5,0-1-0.5-1-1v-6.1c0-0.5,0.5-1,1-1c0.5,0,1,0.5,1,1l0,0v6.1
				C-283.2,338.1-283.6,338.5-284.2,338.5z M-284.2,329.5c-0.5,0-1-0.5-1-1v-6c0-0.5,0.5-1,1-1c0.5,0,1,0.5,1,1v6
				C-283.2,329-283.6,329.5-284.2,329.5L-284.2,329.5z M-284.2,320.4c-0.5,0-1-0.5-1-1v-6c0-0.5,0.5-1,1-1c0.5,0,1,0.5,1,1v6
				C-283.2,319.9-283.6,320.4-284.2,320.4L-284.2,320.4L-284.2,320.4z M-284.2,311.4c-0.5,0-1-0.5-1-1v-5.5c0-0.5,0.5-1,1-1
				c0.5,0,1,0.5,1,1l0,0v5.5C-283.2,310.9-283.6,311.4-284.2,311.4L-284.2,311.4L-284.2,311.4z"/>
			<path id="XMLID_378_" d="M-279,347.6c-0.5,0-1-0.5-1-1v-6.1c0-0.5,0.5-1,1-1s1,0.5,1,1v6.1C-278,347.2-278.5,347.6-279,347.6z
				 M-279,338.5c-0.5,0-1-0.5-1-1v-6.1c0-0.5,0.5-1,1-1s1,0.5,1,1l0,0v6.1C-278,338.1-278.5,338.5-279,338.5z M-279,329.5
				c-0.5,0-1-0.5-1-1l0,0v-6c0-0.5,0.5-1,1-1s1,0.5,1,1v6C-278,329-278.5,329.5-279,329.5z M-279,320.4c-0.5,0-1-0.5-1-1l0,0v-6
				c0-0.5,0.5-1,1-1s1,0.5,1,1v6C-278,319.9-278.5,320.4-279,320.4L-279,320.4z M-279,311.4c-0.5,0-1-0.5-1-1v-6.1c0-0.5,0.5-1,1-1
				s1,0.5,1,1v6.1C-278,310.9-278.5,311.3-279,311.4L-279,311.4z M-279,302.3c-0.5,0-1-0.5-1-1v-6.1c0-0.5,0.5-1,1-1s1,0.5,1,1v6.1
				C-278,301.8-278.5,302.3-279,302.3L-279,302.3z"/>
			<path id="XMLID_372_" d="M-273.8,347.6c-0.5,0-1-0.5-1-1v-6.1c0-0.5,0.5-1,1-1s1,0.5,1,1v6.1
				C-272.8,347.2-273.3,347.6-273.8,347.6z M-273.8,338.5c-0.5,0-1-0.5-1-1v-6.1c0-0.5,0.5-1,1-1c0.5,0,1,0.5,1,1l0,0v6.1
				C-272.8,338.1-273.3,338.5-273.8,338.5z M-273.8,329.5c-0.5,0-1-0.5-1-1v-6c0-0.5,0.5-1,1-1s1,0.5,1,1v6
				C-272.8,329-273.3,329.5-273.8,329.5L-273.8,329.5z M-273.8,320.4c-0.5,0-1-0.5-1-1v-6c0-0.5,0.5-1,1-1s1,0.5,1,1v6
				C-272.8,319.9-273.3,320.4-273.8,320.4L-273.8,320.4L-273.8,320.4z M-273.8,311.4c-0.5,0-1-0.5-1-1v-6.1c0-0.5,0.5-1,1-1
				s1,0.5,1,1v6.1C-272.8,310.9-273.3,311.4-273.8,311.4L-273.8,311.4L-273.8,311.4z"/>
			<path id="XMLID_365_" d="M-268.7,347.6c-0.5,0-1-0.5-1-1v-6.1c0-0.5,0.5-1,1-1c0.5,0,1,0.5,1,1v6.1
				C-267.7,347.2-268.2,347.6-268.7,347.6z M-268.7,338.5c-0.5,0-1-0.5-1-1v-6.1c0-0.5,0.5-1,1-1c0.5,0,1,0.5,1,1l0,0v6.1
				C-267.7,338.1-268.2,338.5-268.7,338.5z M-268.7,329.5c-0.5,0-1-0.5-1-1l0,0v-6c0-0.5,0.5-1,1-1c0.5,0,1,0.5,1,1v6
				C-267.7,329-268.2,329.5-268.7,329.5z M-268.7,320.4c-0.5,0-1-0.5-1-1l0,0v-6c0-0.5,0.5-1,1-1c0.5,0,1,0.5,1,1v6
				C-267.7,319.9-268.2,320.4-268.7,320.4L-268.7,320.4L-268.7,320.4z M-268.7,311.4c-0.5,0-1-0.5-1-1v-6.1c0-0.5,0.5-1,1-1
				c0.5,0,1,0.5,1,1v6.1C-267.7,310.9-268.2,311.3-268.7,311.4L-268.7,311.4z M-268.7,302.3c-0.5,0-1-0.5-1-1v-1.9c0-0.5,0.5-1,1-1
				c0.5,0,1,0.5,1,1v1.9C-267.7,301.8-268.2,302.3-268.7,302.3L-268.7,302.3z"/>
			<path id="XMLID_359_" d="M-263.5,347.6c-0.5,0-1-0.5-1-1v-6.1c0-0.5,0.5-1,1-1c0.5,0,1,0.5,1,1v6.1
				C-262.5,347.2-263,347.6-263.5,347.6z M-263.5,338.5c-0.5,0-1-0.5-1-1v-6.1c0-0.5,0.5-1,1-1c0.5,0,1,0.5,1,1l0,0v6.1
				C-262.5,338.1-263,338.5-263.5,338.5z M-263.5,329.5c-0.5,0-1-0.5-1-1v-6c0-0.5,0.5-1,1-1c0.5,0,1,0.5,1,1v6
				C-262.5,329-263,329.5-263.5,329.5L-263.5,329.5z M-263.5,320.4c-0.5,0-1-0.5-1-1v-6c0-0.5,0.5-1,1-1c0.5,0,1,0.5,1,1v6
				C-262.5,319.9-263,320.4-263.5,320.4L-263.5,320.4L-263.5,320.4z M-263.5,311.4c-0.5,0-1-0.5-1-1v-3.1c0-0.5,0.5-1,1-1
				c0.5,0,1,0.5,1,1v3.1C-262.5,310.9-263,311.4-263.5,311.4L-263.5,311.4L-263.5,311.4z"/>
			<path id="XMLID_354_" d="M-258.4,347.6c-0.5,0-1-0.5-1-1v-6.1c0-0.5,0.5-1,1-1s1,0.5,1,1v6.1
				C-257.4,347.2-257.8,347.6-258.4,347.6z M-258.4,338.5c-0.5,0-1-0.5-1-1v-6.1c0-0.5,0.5-1,1-1s1,0.5,1,1l0,0v6.1
				C-257.4,338.1-257.8,338.5-258.4,338.5z M-258.4,329.5c-0.5,0-1-0.5-1-1l0,0v-6c0-0.5,0.5-1,1-1s1,0.5,1,1l0,0v6
				C-257.4,329-257.8,329.5-258.4,329.5z M-258.4,320.4c-0.5,0-1-0.5-1-1l0,0v-5.2c0-0.5,0.5-1,1-1s1,0.5,1,1l0,0v5.2
				C-257.4,319.9-257.8,320.4-258.4,320.4L-258.4,320.4L-258.4,320.4z"/>
			<path id="XMLID_228_" d="M-279,282.9c-0.5,0-1-0.5-1-1l0,0v-3.7c0-0.5,0.5-1,1-1s1,0.5,1,1v3.7C-278,282.5-278.5,282.9-279,282.9
				z"/>
			<path id="XMLID_227_" d="M-299.6,301.8c-0.5,0-1-0.5-1-1V296c0-0.5,0.5-1,1-1s1,0.5,1,1v4.8
				C-298.6,301.3-299.1,301.8-299.6,301.8L-299.6,301.8z"/>
			<path id="XMLID_226_" d="M-263.5,291c-0.5,0-1-0.5-1-1v-3.8c0-0.5,0.5-1,1-1c0.5,0,1,0.5,1,1v3.8C-262.5,290.5-263,291-263.5,291
				z"/>
			<path id="XMLID_225_" d="M-304.4,346.5h-2.8v-7.6c0-2.2-1.8-4.1-4.1-4.1c-1.1,0-2.2,0.5-2.9,1.2l-2-2c2.7-2.7,7.1-2.7,9.8,0
				c1.3,1.3,2.1,3.1,2.1,4.9L-304.4,346.5z"/>
			<path id="XMLID_224_" d="M-291.8,346.5h-2.8v-7.6c0-2.2-1.8-4.1-4.1-4.1c-1.1,0-2.2,0.5-2.9,1.2l-2-2c2.7-2.7,7.2-2.7,9.8,0
				c1.3,1.3,2,3.1,2,4.9V346.5z"/>
			<path id="XMLID_223_" d="M-279.2,346.5h-2.8v-7.6c0-2.2-1.8-4.1-4.1-4.1c-1.1,0-2.2,0.5-2.9,1.2l-2-2c2.7-2.7,7.2-2.7,9.8,0
				c1.3,1.3,2,3.1,2,4.9V346.5z"/>
			<path id="XMLID_222_" d="M-250.8,346.5h-2.8v-7.6c0-3.8,3.2-6.9,6.9-6.9c1.8,0,3.6,0.8,4.9,2l-2,2c-1.6-1.6-4.2-1.6-5.8,0
				c-0.8,0.8-1.2,1.8-1.2,2.9L-250.8,346.5L-250.8,346.5z"/>
			<path id="XMLID_221_" d="M-263.4,346.5h-2.8v-7.6c0-3.8,3.1-6.9,6.9-6.9c1.8,0,3.6,0.8,4.9,2.1l-2,2c-1.6-1.6-4.2-1.6-5.8,0
				c-0.8,0.8-1.2,1.8-1.2,2.9C-263.4,339-263.4,346.5-263.4,346.5z"/>
			<path id="XMLID_220_" d="M-276,346.5h-2.8v-7.6c0-3.8,3.2-6.9,6.9-6.9c1.8,0,3.6,0.8,4.9,2l-2,2c-1.6-1.6-4.2-1.6-5.8,0
				c-0.8,0.8-1.2,1.8-1.2,2.9C-276,338.9-276,346.5-276,346.5z"/>
			<path id="XMLID_342_" d="M-324.8,259.3h-31.2v-9.8h31.2V259.3z M-353.1,256.5h25.5v-4.1h-25.5V256.5z"/>
			<path id="XMLID_339_" d="M-202.1,259.3h-31.2v-9.8h31.2V259.3z M-230.4,256.5h25.5v-4.1h-25.5L-230.4,256.5z"/>
			<path id="XMLID_336_" d="M-287.8,240.4h-44.8v-9.7h44.8L-287.8,240.4L-287.8,240.4z M-329.8,237.6h39.2v-4.1h-39.2V237.6z"/>
			<path id="XMLID_333_" d="M-262.4,225.9h-33.3v-9.7h33.3C-262.4,216.2-262.4,225.9-262.4,225.9z M-292.8,223.1h27.7V219h-27.7
				V223.1z"/>
			<path id="XMLID_330_" d="M-225.5,240.4h-44.8v-9.7h44.8V240.4z M-267.4,237.6h39.2v-4.1h-39.2V237.6z"/>
			<rect id="XMLID_209_" x="-327.6" y="239" width="2.8" height="15.4"/>
			<rect id="XMLID_208_" x="-233.2" y="239" width="2.8" height="15.4"/>
			<polygon id="XMLID_207_" points="-267.4,347.7 -270.2,347.7 -270.2,225.9 -287.8,225.9 -287.8,347.7 -290.6,347.7 -290.6,223.1 
				-267.4,223.1 			"/>
			<path id="XMLID_206_" d="M-267.4,217.6h-2.8c0-4.8-3.9-8.8-8.8-8.8s-8.8,3.9-8.8,8.8l0,0h-2.8c0-6.4,5.2-11.6,11.6-11.6
				S-267.5,211.2-267.4,217.6C-267.5,217.6-267.5,217.6-267.4,217.6L-267.4,217.6z"/>
			<rect id="XMLID_205_" x="-345.1" y="269.7" width="55" height="2.8"/>
			<rect id="XMLID_204_" x="-268.8" y="269.7" width="55" height="2.8"/>
			<rect id="XMLID_203_" x="-331.2" y="280.3" width="41.2" height="2.8"/>
			<rect id="XMLID_202_" x="-268.8" y="280.3" width="41.9" height="2.8"/>
			<rect id="XMLID_201_" x="-331.2" y="339.5" width="41.2" height="2.8"/>
			<rect id="XMLID_200_" x="-268.8" y="339.5" width="41.9" height="2.8"/>
			<rect id="XMLID_199_" x="-289.2" y="264.9" width="20.6" height="2.8"/>
			<rect id="XMLID_198_" x="-326.2" y="245.3" width="36.2" height="2.8"/>
			<rect id="XMLID_197_" x="-268.8" y="245.3" width="36.9" height="2.8"/>
			<rect id="XMLID_196_" x="-289.2" y="240.5" width="20.6" height="2.8"/>
			<rect id="XMLID_195_" x="-284.5" y="249.2" width="2.8" height="10.1"/>
			<rect id="XMLID_193_" x="-276.5" y="249.2" width="2.8" height="10.1"/>
			<rect id="XMLID_192_" x="-239.7" y="261.7" width="2.8" height="6.1"/>
			<rect id="XMLID_190_" x="-247.8" y="261.7" width="2.8" height="6.1"/>
			<rect id="XMLID_189_" x="-231.6" y="261.7" width="2.8" height="6.1"/>
			<rect id="XMLID_188_" x="-223.6" y="261.7" width="2.8" height="6.1"/>
			<rect id="XMLID_187_" x="-221.3" y="278.8" width="2.8" height="6"/>
			<rect id="XMLID_185_" x="-221.3" y="288.5" width="2.8" height="6.1"/>
			<rect id="XMLID_184_" x="-221.3" y="298.3" width="2.8" height="6.1"/>
			<rect id="XMLID_182_" x="-221.3" y="308" width="2.8" height="6.1"/>
			<rect id="XMLID_181_" x="-221.3" y="317.7" width="2.8" height="6.1"/>
			<rect id="XMLID_179_" x="-221.3" y="327.4" width="2.8" height="6.1"/>
			<rect id="XMLID_178_" x="-221.3" y="337.1" width="2.8" height="6.1"/>
			<rect id="XMLID_177_" x="-339.5" y="278.8" width="2.8" height="6"/>
			<rect id="XMLID_176_" x="-339.5" y="288.5" width="2.8" height="6.1"/>
			<rect id="XMLID_175_" x="-339.5" y="298.3" width="2.8" height="6.1"/>
			<rect id="XMLID_174_" x="-339.5" y="308" width="2.8" height="6.1"/>
			<rect id="XMLID_173_" x="-339.5" y="317.7" width="2.8" height="6.1"/>
			<rect id="XMLID_172_" x="-339.5" y="327.4" width="2.8" height="6.1"/>
			<rect id="XMLID_171_" x="-339.5" y="337.1" width="2.8" height="6.1"/>
			<rect id="XMLID_170_" x="-255.8" y="261.7" width="2.8" height="6.1"/>
			<rect id="XMLID_169_" x="-263.8" y="261.7" width="2.8" height="6.1"/>
			<rect id="XMLID_168_" x="-239.7" y="252" width="2.8" height="6.1"/>
			<rect id="XMLID_167_" x="-247.8" y="252" width="2.8" height="6.1"/>
			<rect id="XMLID_166_" x="-255.8" y="252" width="2.8" height="6.1"/>
			<rect id="XMLID_165_" x="-263.8" y="252" width="2.8" height="6.1"/>
			<rect id="XMLID_164_" x="-321.4" y="261.7" width="2.8" height="6.1"/>
			<rect id="XMLID_163_" x="-313.4" y="261.7" width="2.8" height="6.1"/>
			<rect id="XMLID_162_" x="-329.5" y="261.7" width="2.8" height="6.1"/>
			<rect id="XMLID_161_" x="-337.5" y="261.7" width="2.8" height="6.1"/>
			<rect id="XMLID_160_" x="-305.3" y="261.7" width="2.8" height="6.1"/>
			<rect id="XMLID_159_" x="-297.2" y="261.7" width="2.8" height="6.1"/>
			<rect id="XMLID_158_" x="-321.4" y="252" width="2.8" height="6.1"/>
			<rect id="XMLID_157_" x="-313.4" y="252" width="2.8" height="6.1"/>
			<rect id="XMLID_156_" x="-305.3" y="252" width="2.8" height="6.1"/>
			<rect id="XMLID_155_" x="-297.2" y="252" width="2.8" height="6.1"/>
			<rect id="XMLID_154_" x="-228.2" y="271.1" width="2.8" height="79.4"/>
			<rect id="XMLID_153_" x="-332.6" y="271.1" width="2.8" height="79.4"/>
		</g>
	</g>
</g>
<g id="Layer_4" class="st0">
	<g id="Layer_2_4_" class="st1">
		<g id="content_2_3_">
			<rect id="XMLID_329_" x="-247.1" y="315.1" width="3.7" height="37.8"/>
			<rect id="XMLID_328_" x="-281.2" y="242.2" width="3.7" height="21.5"/>
			<rect id="XMLID_327_" x="-219.6" y="311.6" width="3.7" height="61.1"/>
			<rect id="XMLID_326_" x="-195" y="304.9" width="3.7" height="60.7"/>
			<rect id="XMLID_325_" x="-182.7" y="294" width="3.7" height="61.3"/>
			<path id="XMLID_324_" d="M-179.6,204.2h-3.7c0-10-8.2-18.2-18.2-18.2h-45.8c-10,0-18.2,8.2-18.2,18.2h-3.7
				c0-12.1,9.8-21.9,21.9-21.9h45.8C-189.4,182.3-179.6,192.1-179.6,204.2z"/>
			<path id="XMLID_323_" d="M-179.6,204.2h-3.7c0-3.9-7.5-8.2-18.2-8.2h-45.8c-10.7,0-18.2,4.3-18.2,8.2h-3.7
				c0-6.6,9.6-11.9,21.9-11.9h45.8C-189.2,192.4-179.6,197.6-179.6,204.2z"/>
			<rect id="XMLID_322_" x="-267.3" y="202.4" width="85.9" height="3.7"/>
			<path id="XMLID_321_" d="M-201.5,216.1h-45.8c-12.3,0-21.9-5.2-21.9-11.9h3.7c0,3.9,7.5,8.2,18.2,8.2h45.8
				c10.7,0,18.2-4.3,18.2-8.2h3.7C-179.6,210.9-189.2,216.1-201.5,216.1z"/>
			<path id="XMLID_320_" d="M-201.5,226.1h-45.8c-12.1,0-21.9-9.8-21.9-21.9h3.7c0,10,8.2,18.2,18.2,18.2h45.8
				c10,0,18.2-8.2,18.2-18.2h3.7C-179.6,216.3-189.4,226.1-201.5,226.1z"/>
			<polygon id="XMLID_319_" points="-267,202.5 -278.3,202.5 -278.3,185.1 -265.1,185.1 -260.8,189.4 -263.4,192 -266.7,188.8 
				-274.6,188.8 -274.6,198.8 -267,198.8 			"/>
			<polygon id="XMLID_318_" points="-265.1,224.8 -278.3,224.8 -278.3,207.4 -267.3,207.4 -267.3,211.1 -274.6,211.1 -274.6,221.1 
				-266.7,221.1 -262.7,217.1 -260.1,219.7 			"/>
			<path id="XMLID_317_" d="M-242.2,246.5h-3.7v-52.3c0-8.4,6-11.5,6.3-11.7l1.7,3.3c-0.2,0.1-4.3,2.3-4.3,8.4V246.5z"/>
			<path id="XMLID_316_" d="M-222.5,231.9h-3.7v-37.7c0-8.4,6-11.5,6.3-11.7l1.6,3.3l-0.8-1.7l0.8,1.6c-0.2,0.1-4.3,2.3-4.3,8.4
				L-222.5,231.9L-222.5,231.9z"/>
			<rect id="XMLID_315_" x="-206.3" y="224.2" width="3.7" height="15.3"/>
			<rect id="XMLID_314_" x="-280.8" y="318.5" width="3.7" height="59.3"/>
			<rect id="XMLID_313_" x="-314.6" y="315.1" width="3.7" height="39.2"/>
			<rect id="XMLID_312_" x="-281.2" y="271.5" width="3.7" height="104.4"/>
			<rect id="XMLID_311_" x="-342.1" y="311.6" width="3.7" height="61.1"/>
			<rect id="XMLID_310_" x="-366.7" y="304.9" width="3.7" height="60.7"/>
			<rect id="XMLID_309_" x="-379" y="294" width="3.7" height="61.3"/>
			<path id="XMLID_308_" d="M-279,379.7c-48.5,0-100-8.5-100-24.3h3.7c0,9.8,39.6,20.6,96.3,20.6s96.3-10.9,96.3-20.7h3.7
				c0,8.9-16.4,14.6-30.2,17.7C-227.9,377.3-252.7,379.7-279,379.7z"/>
			<path id="XMLID_307_" d="M-279,364.4c-48.5,0-100-8.5-100-24.4h3.7c0,9.8,39.6,20.7,96.3,20.7s96.3-10.9,96.3-20.7h3.7
				c0,8.9-16.4,14.6-30.2,17.7C-227.9,362-252.7,364.4-279,364.4z"/>
			<path id="XMLID_306_" d="M-213.1,312.4c-18-3.8-41.4-5.9-65.9-5.9s-47.9,2.1-65.9,5.9l-0.8-3.6c18.2-3.8,41.9-5.9,66.6-5.9
				s48.4,2.1,66.6,5.9L-213.1,312.4z"/>
			<path id="XMLID_305_" d="M-279,349c-48.5,0-100-8.5-100-24.4h3.7c0,9.8,39.6,20.7,96.3,20.7s96.3-10.9,96.3-20.7h3.7
				c0,8.9-16.4,14.6-30.2,17.7C-227.9,346.7-252.7,349-279,349z"/>
			<path id="XMLID_304_" d="M-189,304.1c-14.9-8.4-50.2-13.8-90-13.8s-75.1,5.4-90,13.8l-1.8-3.2c15.4-8.6,51.4-14.2,91.8-14.2
				s76.4,5.6,91.8,14.2L-189,304.1z"/>
			<path id="XMLID_303_" d="M-279,333.7c-48.5,0-100-8.5-100-24.4h3.7c0,9.8,39.6,20.7,96.3,20.7s96.3-10.9,96.3-20.7h3.7
				c0,8.9-16.4,14.6-30.2,17.7C-227.9,331.3-252.7,333.7-279,333.7z"/>
			<path d="M-279,318.4c-48.5,0-100-8.5-100-24.4c0-8.9,16.4-14.6,30.2-17.7c18.7-4.3,43.5-6.6,69.8-6.6c48.5,0,100,8.5,100,24.4
				c0,8.9-16.4,14.6-30.2,17.7C-227.9,316-252.7,318.4-279,318.4z M-279,273.3c-56.8,0-96.3,10.9-96.3,20.7s39.6,20.7,96.3,20.7
				s96.3-10.9,96.3-20.7S-222.2,273.3-279,273.3z"/>
			<rect id="XMLID_300_" x="-328.1" y="346.8" class="st3" width="98.2" height="31.1"/>
			<path d="M-228.1,379.7h-101.8V345h101.8V379.7z M-326.2,376h94.5v-27.4h-94.5V376z"/>
			<rect id="XMLID_297_" x="-321.5" y="353.3" class="st3" width="85.1" height="24.5"/>
			<path d="M-234.6,379.7h-88.8v-28.2h88.8V379.7z M-319.7,376h81.4v-20.8h-81.4V376z"/>
			<rect id="XMLID_294_" x="-280.8" y="353.3" width="3.7" height="24.5"/>
			<rect id="XMLID_293_" x="-259.6" y="353.3" width="3.7" height="24.5"/>
			<rect id="XMLID_292_" x="-302.1" y="353.3" width="3.7" height="24.5"/>
			<path id="XMLID_291_" d="M-256.4,317.3l-2.8-2.4c10.1-11.9,16.8-26.3,19.2-41.7l3.6,0.6C-238.8,289.9-245.8,304.9-256.4,317.3z"
				/>
			<path id="XMLID_290_" d="M-230.3,315.2l-2-3.1c16.5-11.2,26.8-23.4,27.5-32.6l3.7,0.3C-202,290.3-212.6,303.2-230.3,315.2z"/>
			<path id="XMLID_289_" d="M-302.2,317.1c-10.5-12.3-17.4-27.3-19.9-43.3l3.7-0.6c2.4,15.3,9,29.7,19.1,41.5L-302.2,317.1z"/>
			<path id="XMLID_288_" d="M-328.2,315.1c-17.6-12-28.2-24.9-29-35.3l3.7-0.3c0.7,9.2,10.9,21.3,27.4,32.5L-328.2,315.1z"/>
			<path d="M-353.5,279.7h-3.7v-35.3h25.5v17.8h-21.8V279.7z M-353.5,258.6h18.1v-10.5h-18.1V258.6z"/>
			<path d="M-201.2,279.7h-3.7v-35.3h25.5v17.8h-21.8V279.7z M-201.2,258.6h18.1v-10.5h-18.1V258.6z"/>
			<polygon id="XMLID_283_" points="-252.6,272.2 -256.3,272.2 -256.3,265.5 -301.7,265.5 -301.7,272.2 -305.4,272.2 -305.4,261.8 
				-252.6,261.8 			"/>
			<path d="M-252.6,265.5h-52.8v-25.3h52.8C-252.6,240.2-252.6,265.5-252.6,265.5z M-301.7,261.8h45.4v-18h-45.4V261.8z"/>
			<path d="M-262.8,259.1h-9.1V247h9.1V259.1z M-269.3,256.5h3.9v-6.9h-3.9V256.5z"/>
			<path d="M-286.7,259.1h-9.1V247h9.1V259.1z M-293.2,256.5h3.9v-6.9h-3.9V256.5z"/>
		</g>
	</g>
</g>
<g id="Layer_5" class="st0">
	<g id="Layer_2_5_" class="st1">
		<g id="content_2_4_">
			<path id="XMLID_393_" d="M-360.8,260.3c-8.6,0-15.6-7-15.6-15.6v-28.3h31.1v28.3C-345.2,253.3-352.2,260.3-360.8,260.3z
				 M-372.5,220.3v24.4c-0.2,6.5,4.9,11.8,11.4,12c6.5,0.2,11.8-4.9,12-11.4c0-0.2,0-0.4,0-0.7v-24.3H-372.5z"/>
			<path id="XMLID_389_" d="M-333.5,260.3c-8.6,0-15.6-7-15.6-15.6v-28.3h31.1v28.3C-318,253.3-324.9,260.3-333.5,260.3z
				 M-345.2,220.3v24.4c-0.2,6.5,4.9,11.8,11.4,12c6.5,0.2,11.8-4.9,12-11.4c0-0.2,0-0.4,0-0.7v-24.3H-345.2z"/>
			<path id="XMLID_386_" d="M-306.3,260.3c-8.6,0-15.6-7-15.6-15.6v-28.3h31.1v28.3C-290.7,253.3-297.7,260.3-306.3,260.3z
				 M-318,220.3v24.4c0,6.5,5.2,11.7,11.7,11.7s11.7-5.2,11.7-11.7v-24.4H-318z"/>
			<path id="XMLID_382_" d="M-279,260.3c-8.6,0-15.5-7-15.6-15.6v-28.3h31.1v28.3C-263.4,253.3-270.4,260.3-279,260.3z
				 M-290.7,220.3v24.4c-0.2,6.5,4.9,11.8,11.4,12c6.5,0.2,11.8-4.9,12-11.4c0-0.2,0-0.4,0-0.7v-24.3H-290.7z"/>
			<path id="XMLID_379_" d="M-251.8,260.3c-8.6,0-15.5-7-15.6-15.6v-28.3h31.1v28.3C-236.2,253.3-243.2,260.3-251.8,260.3z
				 M-263.4,220.3v24.4c-0.2,6.5,4.9,11.8,11.4,12c6.5,0.2,11.8-4.9,12-11.4c0-0.2,0-0.4,0-0.7v-24.3H-263.4z"/>
			<path id="XMLID_375_" d="M-224.5,260.3c-8.6,0-15.5-7-15.6-15.6v-28.3h31.1v28.3C-208.9,253.3-215.9,260.3-224.5,260.3z
				 M-236.2,220.3v24.4c-0.2,6.5,4.9,11.8,11.4,12c6.5,0.2,11.8-4.9,12-11.4c0-0.2,0-0.4,0-0.7v-24.3H-236.2z"/>
			<path id="XMLID_371_" d="M-197.2,260.3c-8.6,0-15.6-7-15.6-15.6v-28.3h31.1v28.3C-181.7,253.3-188.6,260.3-197.2,260.3z
				 M-208.9,220.3v24.4c-0.2,6.5,4.9,11.8,11.4,12c6.5,0.2,11.8-4.9,12-11.4c0-0.2,0-0.4,0-0.7v-24.3H-208.9z"/>
			<polygon id="XMLID_370_" points="-184.4,374.8 -373.6,374.8 -373.6,252.7 -369.7,252.7 -369.7,370.9 -188.3,370.9 -188.3,252.9 
				-184.4,252.9 			"/>
			<polygon id="XMLID_369_" points="-345.2,218.4 -349.1,218.4 -349.1,215.2 -347.4,203.6 -343.6,204.1 -345.2,215.6 			"/>
			<polygon id="XMLID_368_" points="-318,218.4 -321.8,218.4 -321.8,215.3 -320.9,203.7 -317,204 -318,215.5 			"/>
			<polygon id="XMLID_367_" points="-290.7,218.4 -294.6,218.4 -294.6,215.5 -294.2,203.8 -290.4,203.9 -290.7,215.5 			"/>
			<polygon id="XMLID_366_" points="-263.4,218.4 -267.3,218.4 -267.3,215.5 -267.6,203.9 -263.8,203.8 -263.4,215.4 			"/>
			<polygon id="XMLID_364_" points="-236.2,218.4 -240.1,218.4 -240.1,215.5 -241,204 -237.2,203.7 -236.2,215.5 			"/>
			<polygon id="XMLID_363_" points="-208.9,218.4 -212.8,218.4 -212.8,215.6 -214.4,204.1 -210.6,203.6 -208.9,215.5 			"/>
			<polygon id="XMLID_362_" points="-181.7,218.4 -185.5,218.4 -185.5,215.7 -187.5,205.8 -370.5,205.8 -372.5,215.7 -372.5,218.4 
				-376.3,218.4 -376.3,215.1 -373.7,201.9 -184.3,201.9 -181.7,215.5 			"/>
			<polygon id="XMLID_361_" points="-184.4,203.8 -188.3,203.8 -188.3,184.9 -369.7,184.9 -369.7,203.8 -373.6,203.8 -373.6,181 
				-184.4,181 			"/>
			<path id="XMLID_357_" d="M-297.9,372.9h-58.5v-91.2h58.4v91.2H-297.9z M-352.4,369h50.6v-83.5h-50.7L-352.4,369z"/>
			<rect id="XMLID_356_" x="-329.1" y="283.6" width="3.9" height="87.4"/>
			<path id="XMLID_352_" d="M-201.7,333.9h-73.2v-52.3h73.2V333.9z M-271,330h65.5v-44.5H-271V330z"/>
			<rect id="XMLID_351_" x="-354.4" y="289.1" width="54.5" height="3.9"/>
			<rect id="XMLID_350_" x="-272.6" y="289.1" width="69.1" height="3.9"/>
			<rect id="XMLID_349_" x="-321.8" y="325.9" width="3.9" height="9.3"/>
			<rect id="XMLID_348_" x="-336.4" y="325.9" width="3.9" height="9.3"/>
			<rect id="XMLID_347_" x="-273" y="358.9" width="69.4" height="3.9"/>
			<rect id="XMLID_346_" x="-216.4" y="360.8" width="3.9" height="20.2"/>
			<rect id="XMLID_345_" x="-262.9" y="360.8" width="3.9" height="20.2"/>
			
				<rect id="XMLID_344_" x="-373.5" y="241.6" transform="matrix(0.7071 -0.7071 0.7071 0.7071 -277.0676 -181.8262)" width="30.9" height="3.9"/>
			
				<rect id="XMLID_343_" x="-345.9" y="241.6" transform="matrix(0.7071 -0.7071 0.7071 0.7071 -269.0125 -162.3358)" width="30.9" height="3.9"/>
			
				<rect id="XMLID_341_" x="-319" y="241.6" transform="matrix(0.7071 -0.7071 0.7071 0.7071 -261.144 -143.3181)" width="30.9" height="3.9"/>
			
				<rect id="XMLID_340_" x="-291.8" y="241.6" transform="matrix(0.7071 -0.7071 0.7071 0.7071 -253.1715 -124.0785)" width="30.9" height="3.9"/>
			
				<rect id="XMLID_338_" x="-264.6" y="241.6" transform="matrix(0.7071 -0.7071 0.7071 0.7071 -245.2029 -104.8485)" width="30.9" height="3.9"/>
			
				<rect id="XMLID_337_" x="-237.4" y="241.6" transform="matrix(0.7071 -0.7071 0.7071 0.7071 -237.2303 -85.6088)" width="30.9" height="3.9"/>
			
				<rect id="XMLID_335_" x="-210.2" y="241.6" transform="matrix(0.7071 -0.7071 0.7071 0.7071 -229.2715 -66.3691)" width="30.9" height="3.9"/>
			<rect id="XMLID_334_" x="-371.7" y="189.2" width="185.3" height="3.9"/>
			<rect id="XMLID_332_" x="-240.1" y="284.3" width="3.9" height="47.9"/>
		</g>
	</g>
</g>
</svg>
