<?xml version="1.0" encoding="utf-8"?>
<!-- Generator: Adobe Illustrator 19.0.0, SVG Export Plug-In . SVG Version: 6.00 Build 0)  -->
<svg version="1.1" id="Layer_1" xmlns="http://www.w3.org/2000/svg" xmlns:xlink="http://www.w3.org/1999/xlink" x="0px" y="0px"
	 viewBox="-379 181 200 200" style="enable-background:new -379 181 200 200;" xml:space="preserve">
<style type="text/css">
	.st0{display:none;}
	.st1{display:inline;}
	.st2{fill:#FFFFFF;stroke:#000000;stroke-width:3.688;stroke-miterlimit:10;}
	.st3{fill:#FFFFFF;}
</style>
<g id="Layer_1_1_" class="st0">
	<g id="Layer_2" class="st1">
		<g id="content_2">
			<path d="M-226,381h-106V223.9h106V381z M-328.2,377.2h98.3V227.7h-98.3V377.2z"/>
			<path d="M-244.3,227.7h-69.4v-14h69.5L-244.3,227.7z M-309.9,223.9h61.8v-6.4h-61.8V223.9z"/>
			<path d="M-328.2,381h-34.5V244.4h34.5V381z M-358.8,377.2h26.8v-129h-26.8V377.2z"/>
			<path d="M-195.3,381h-34.5V244.4h34.5V381z M-226,377.2h26.8v-129H-226V377.2z"/>
			<rect id="XMLID_105_" x="-280.9" y="189.1" width="3.8" height="20.4"/>
			<rect id="XMLID_104_" x="-289.2" y="197.3" width="20.4" height="3.8"/>
			<path d="M-259.2,381h-39.6v-29.4h39.6C-259.2,351.6-259.2,381-259.2,381z M-295,377.2h32v-21.7h-32V377.2z"/>
			<rect id="XMLID_101_" x="-220" y="257.4" width="3.8" height="13.6"/>
			<rect id="XMLID_100_" x="-220" y="276.8" width="3.8" height="13.6"/>
			<rect id="XMLID_99_" x="-220" y="296.2" width="3.8" height="13.6"/>
			<rect id="XMLID_98_" x="-220" y="315.6" width="3.8" height="13.6"/>
			<rect id="XMLID_97_" x="-220" y="335" width="3.8" height="13.6"/>
			<rect id="XMLID_96_" x="-220" y="354.4" width="3.8" height="13.6"/>
			<rect id="XMLID_95_" x="-209.1" y="257.4" width="3.8" height="13.6"/>
			<rect id="XMLID_94_" x="-209.1" y="276.8" width="3.8" height="13.6"/>
			<rect id="XMLID_93_" x="-209.1" y="296.2" width="3.8" height="13.6"/>
			<rect id="XMLID_92_" x="-209.1" y="315.6" width="3.8" height="13.6"/>
			<rect id="XMLID_91_" x="-209.1" y="335" width="3.8" height="13.6"/>
			<rect id="XMLID_90_" x="-209.1" y="354.4" width="3.8" height="13.6"/>
			<rect id="XMLID_89_" x="-352.8" y="257.4" width="3.8" height="13.6"/>
			<rect id="XMLID_88_" x="-352.8" y="276.8" width="3.8" height="13.6"/>
			<rect id="XMLID_87_" x="-352.8" y="296.2" width="3.8" height="13.6"/>
			<rect id="XMLID_86_" x="-352.8" y="315.6" width="3.8" height="13.6"/>
			<rect id="XMLID_85_" x="-352.8" y="335" width="3.8" height="13.6"/>
			<rect id="XMLID_84_" x="-352.8" y="354.4" width="3.8" height="13.6"/>
			<rect id="XMLID_83_" x="-341.9" y="257.4" width="3.8" height="13.6"/>
			<rect id="XMLID_82_" x="-341.9" y="276.8" width="3.8" height="13.6"/>
			<rect id="XMLID_81_" x="-341.9" y="296.2" width="3.8" height="13.6"/>
			<rect id="XMLID_80_" x="-341.9" y="315.6" width="3.8" height="13.6"/>
			<rect id="XMLID_79_" x="-341.9" y="335" width="3.8" height="13.6"/>
			<rect id="XMLID_78_" x="-341.9" y="354.4" width="3.8" height="13.6"/>
			<rect id="XMLID_77_" x="-253.7" y="235.9" width="3.8" height="13.6"/>
			<rect id="XMLID_76_" x="-253.7" y="255.3" width="3.8" height="13.6"/>
			<rect id="XMLID_75_" x="-253.7" y="274.7" width="3.8" height="13.6"/>
			<rect id="XMLID_74_" x="-253.7" y="294.1" width="3.8" height="13.6"/>
			<rect id="XMLID_73_" x="-253.7" y="313.5" width="3.8" height="13.6"/>
			<rect id="XMLID_72_" x="-253.7" y="332.9" width="3.8" height="13.6"/>
			<rect id="XMLID_71_" x="-242.8" y="235.9" width="3.8" height="13.6"/>
			<rect id="XMLID_70_" x="-242.8" y="255.3" width="3.8" height="13.6"/>
			<rect id="XMLID_69_" x="-242.8" y="274.7" width="3.8" height="13.6"/>
			<rect id="XMLID_68_" x="-242.8" y="294.1" width="3.8" height="13.6"/>
			<rect id="XMLID_67_" x="-242.8" y="313.5" width="3.8" height="13.6"/>
			<rect id="XMLID_66_" x="-242.8" y="332.9" width="3.8" height="13.6"/>
			<rect id="XMLID_65_" x="-264.6" y="235.9" width="3.8" height="13.6"/>
			<rect id="XMLID_64_" x="-264.6" y="255.3" width="3.8" height="13.6"/>
			<rect id="XMLID_63_" x="-264.6" y="274.7" width="3.8" height="13.6"/>
			<rect id="XMLID_62_" x="-264.6" y="294.1" width="3.8" height="13.6"/>
			<rect id="XMLID_61_" x="-264.6" y="313.5" width="3.8" height="13.6"/>
			<rect id="XMLID_60_" x="-264.6" y="332.9" width="3.8" height="13.6"/>
			<rect id="XMLID_59_" x="-275.5" y="235.9" width="3.8" height="13.6"/>
			<rect id="XMLID_58_" x="-275.5" y="255.3" width="3.8" height="13.6"/>
			<rect id="XMLID_57_" x="-275.5" y="274.7" width="3.8" height="13.6"/>
			<rect id="XMLID_56_" x="-275.5" y="294.1" width="3.8" height="13.6"/>
			<rect id="XMLID_55_" x="-275.5" y="313.5" width="3.8" height="13.6"/>
			<rect id="XMLID_54_" x="-275.5" y="332.9" width="3.8" height="13.6"/>
			<rect id="XMLID_53_" x="-286.4" y="235.9" width="3.8" height="13.6"/>
			<rect id="XMLID_52_" x="-286.4" y="255.3" width="3.8" height="13.6"/>
			<rect id="XMLID_51_" x="-286.4" y="274.7" width="3.8" height="13.6"/>
			<rect id="XMLID_50_" x="-286.4" y="294.1" width="3.8" height="13.6"/>
			<rect id="XMLID_49_" x="-286.4" y="313.5" width="3.8" height="13.6"/>
			<rect id="XMLID_48_" x="-286.4" y="332.9" width="3.8" height="13.6"/>
			<rect id="XMLID_47_" x="-297.3" y="235.9" width="3.8" height="13.6"/>
			<rect id="XMLID_46_" x="-297.3" y="255.3" width="3.8" height="13.6"/>
			<rect id="XMLID_45_" x="-297.3" y="274.7" width="3.8" height="13.6"/>
			<rect id="XMLID_44_" x="-297.3" y="294.1" width="3.8" height="13.6"/>
			<rect id="XMLID_43_" x="-297.3" y="313.5" width="3.8" height="13.6"/>
			<rect id="XMLID_42_" x="-297.3" y="332.9" width="3.8" height="13.6"/>
			<rect id="XMLID_41_" x="-308.2" y="235.9" width="3.8" height="13.6"/>
			<rect id="XMLID_40_" x="-308.2" y="255.3" width="3.8" height="13.6"/>
			<rect id="XMLID_39_" x="-308.2" y="274.7" width="3.8" height="13.6"/>
			<rect id="XMLID_38_" x="-308.2" y="294.1" width="3.8" height="13.6"/>
			<rect id="XMLID_37_" x="-308.2" y="313.5" width="3.8" height="13.6"/>
			<rect id="XMLID_36_" x="-308.2" y="332.9" width="3.8" height="13.6"/>
			<rect id="XMLID_35_" x="-319.1" y="235.9" width="3.8" height="13.6"/>
			<rect id="XMLID_34_" x="-319.1" y="255.3" width="3.8" height="13.6"/>
			<rect id="XMLID_33_" x="-319.1" y="274.7" width="3.8" height="13.6"/>
			<rect id="XMLID_32_" x="-319.1" y="294.1" width="3.8" height="13.6"/>
			<rect id="XMLID_31_" x="-319.1" y="313.5" width="3.8" height="13.6"/>
			<rect id="XMLID_30_" x="-319.1" y="332.9" width="3.8" height="13.6"/>
			<rect id="XMLID_29_" x="-280.9" y="353.5" width="3.8" height="25.5"/>
			<path d="M-251.5,217.5h-55V181h54.9v36.5H-251.5z M-302.6,213.7h47.2v-28.9h-47.2V213.7z"/>
		</g>
	</g>
</g>
<g id="Layer_2_1_" class="st0">
	<g id="Layer_2_2_" class="st1">
		<g id="content_2_1_">
			<rect id="XMLID_152_" x="-280.9" y="284.7" width="3.8" height="94.2"/>
			<path id="XMLID_194_" d="M-224.2,254.1h-109.7v-20.6c0-5.6,4.6-10.2,10.2-10.2h89.3c5.6,0,10.2,4.6,10.2,10.2V254.1z M-330,250.3
				h102v-16.8c0-3.5-2.8-6.4-6.3-6.4h-89.4c-3.5,0-6.4,2.8-6.4,6.4l0,0L-330,250.3z"/>
			<path id="XMLID_191_" d="M-279,381c-4.3,0-8.5-1.7-11.5-4.8l-48.6-48.5c-2.6-2.6-4-6-4-9.7v-18.8c0-0.9,0.1-1.8,0.3-2.7l9.4-46.2
				h109l9.5,46.2c0.2,0.9,0.3,1.8,0.3,2.7V318c0,3.6-1.4,7.1-4,9.7l-48.7,48.5C-270.5,379.3-274.7,381-279,381z M-330.4,254.1
				l-8.8,43.1c-0.1,0.6-0.2,1.3-0.2,1.9V318c0,2.6,1,5.1,2.9,7l48.6,48.5c4.9,4.9,12.8,4.9,17.7,0l48.6-48.5c1.8-1.9,2.9-4.4,2.9-7
				v-18.8c0-0.6-0.1-1.3-0.2-1.9l-8.8-43.1L-330.4,254.1z"/>
			<polygon id="XMLID_147_" points="-217.2,299.9 -279,286.7 -340.9,299.9 -341.7,296.1 -279,282.8 -216.4,296.1 			"/>
			<polygon id="XMLID_146_" points="-217.2,324.8 -279,311.6 -340.9,324.8 -341.7,321 -279,307.7 -216.4,321 			"/>
			<path id="XMLID_186_" d="M-255.4,226.5h-47.2l6.5-16c1.4-3.4,4.7-5.7,8.5-5.7h17.2c3.7,0,7.1,2.2,8.5,5.7L-255.4,226.5z
				 M-296.9,222.7h35.8l-4.4-10.8c-0.8-2-2.7-3.3-4.9-3.3h-17.2c-2.1,0-4.1,1.3-4.9,3.3L-296.9,222.7z"/>
			<path id="XMLID_183_" d="M-266.7,196.8h-25.2c-4.4,0-7.9-3.5-7.9-7.9c0-4.3,3.5-7.9,7.9-7.9h25.2c4.4,0,7.9,3.5,7.9,7.9
				C-258.8,193.3-262.4,196.8-266.7,196.8L-266.7,196.8z M-291.9,184.8c-2.2,0-4.1,1.8-4.1,4.1c0,2.2,1.8,4.1,4.1,4.1h25.2
				c2.2,0,4.1-1.8,4.1-4.1c0-2.3-1.8-4.1-4.1-4.1l0,0C-266.7,184.8-291.9,184.8-291.9,184.8z"/>
			<path id="XMLID_180_" d="M-269.4,207.7h-19.2v-14.1h19.2C-269.4,193.6-269.4,207.7-269.4,207.7z M-284.8,203.9h11.5v-6.4h-11.5
				V203.9z"/>
			<rect id="XMLID_139_" x="-323.7" y="223.3" width="89.3" height="3.8"/>
			<rect id="XMLID_138_" x="-332" y="236.8" width="105.5" height="3.8"/>
			<rect id="XMLID_137_" x="-332" y="250.3" width="105.9" height="3.8"/>
			<rect id="XMLID_136_" x="-280.9" y="225.2" width="3.8" height="13.5"/>
			<rect id="XMLID_135_" x="-299.2" y="238" width="3.8" height="13.5"/>
			<rect id="XMLID_134_" x="-310.1" y="225.2" width="3.8" height="13.5"/>
			<rect id="XMLID_133_" x="-251.7" y="225.2" width="3.8" height="13.5"/>
			<rect id="XMLID_132_" x="-262.7" y="238" width="3.8" height="13.5"/>
			<rect id="XMLID_131_" x="-285.8" y="261" width="13.5" height="3.8"/>
			<rect id="XMLID_130_" x="-306.1" y="262.4" width="13.5" height="3.8"/>
			<rect id="XMLID_129_" x="-265.4" y="262.4" width="13.5" height="3.8"/>
			<path id="XMLID_128_" d="M-278.3,363.3l-0.8-3.7c28.4-6,47.7-24.6,47.9-24.7l2.7,2.7C-229.4,338.4-248.8,357.1-278.3,363.3z"/>
			<path id="XMLID_127_" d="M-279.6,363.3c-29.5-6.3-49-25-49.8-25.8l2.7-2.7c0.2,0.2,19.5,18.7,47.9,24.7L-279.6,363.3z"/>
			<path id="XMLID_126_" d="M-243.7,334.4c-0.1,0-0.3,0-0.4,0l-9.4-2c-1-0.2-1.7-1.2-1.5-2.2c0.2-1,1.2-1.7,2.2-1.5c0,0,0,0,0.1,0
				l9.4,2c1,0.2,1.7,1.3,1.4,2.3C-242.1,333.8-242.8,334.4-243.7,334.4L-243.7,334.4z"/>
			<path id="XMLID_125_" d="M-314.3,334.4c-1.1,0-1.9-0.9-1.9-1.9c0-0.9,0.6-1.6,1.5-1.8l9.4-2c1-0.2,2,0.5,2.2,1.6
				c0.2,1-0.4,1.9-1.4,2.2l-9.4,2C-314,334.4-314.2,334.4-314.3,334.4z"/>
			<rect id="XMLID_124_" x="-266.3" y="286.9" width="3.8" height="25.5"/>
			<rect id="XMLID_123_" x="-295.5" y="286.9" width="3.8" height="25.5"/>
			
				<rect id="XMLID_122_" x="-242.2" y="278.4" transform="matrix(0.2083 -0.9781 0.9781 0.2083 -486.0515 4.4745)" width="3.8" height="48.1"/>
			
				<rect id="XMLID_121_" x="-341.8" y="300.6" transform="matrix(0.9781 -0.2083 0.2083 0.9781 -69.9748 -59.5229)" width="48.4" height="3.8"/>
			<rect id="XMLID_120_" x="-326.5" y="264.4" width="13.5" height="3.8"/>
			<rect id="XMLID_119_" x="-245" y="264.4" width="13.5" height="3.8"/>
			<rect id="XMLID_118_" x="-285.8" y="273.2" width="13.5" height="3.8"/>
			<rect id="XMLID_117_" x="-306.1" y="274.6" width="13.5" height="3.8"/>
			<rect id="XMLID_116_" x="-265.4" y="274.6" width="13.5" height="3.8"/>
			<rect id="XMLID_115_" x="-326.5" y="276.6" width="13.5" height="3.8"/>
			<rect id="XMLID_114_" x="-245" y="276.6" width="13.5" height="3.8"/>
		</g>
	</g>
</g>
<g id="Layer_3" class="st0">
	<g id="Layer_2_3_" class="st1">
		<g id="content_2_2_">
			<polygon id="XMLID_276_" points="-191.3,374.2 -366.7,374.2 -366.7,250.9 -363,250.9 -363,370.5 -195,370.5 -195,250.9 
				-191.3,250.9 			"/>
			<rect id="XMLID_275_" x="-316.9" y="366.2" class="st2" width="75.7" height="12.3"/>
			<path id="XMLID_404_" d="M-305.8,367.6c-0.7,0-1.3-0.6-1.3-1.3v-7.9c0-0.7,0.6-1.3,1.3-1.3c0.7,0,1.3,0.6,1.3,1.3v7.9
				C-304.5,367-305.1,367.6-305.8,367.6L-305.8,367.6z M-305.8,355.8c-0.7,0-1.3-0.6-1.3-1.3v-7.9c0-0.7,0.6-1.3,1.3-1.3
				c0.7,0,1.3,0.6,1.3,1.3l0,0v7.9C-304.5,355.2-305.1,355.8-305.8,355.8L-305.8,355.8z M-305.8,344c-0.7,0-1.3-0.6-1.3-1.3v-7.8
				c0-0.7,0.6-1.3,1.3-1.3c0.7,0,1.3,0.6,1.3,1.3v7.8C-304.5,343.4-305.1,344-305.8,344L-305.8,344z M-305.8,332.2
				c-0.7,0-1.3-0.6-1.3-1.3v-4c0-0.7,0.6-1.3,1.3-1.3c0.7,0,1.3,0.6,1.3,1.3v4C-304.5,331.6-305.1,332.2-305.8,332.2L-305.8,332.2
				L-305.8,332.2z"/>
			<path id="XMLID_398_" d="M-299.1,367.6c-0.7,0-1.3-0.6-1.3-1.3v-7.9c0.1-0.7,0.7-1.3,1.4-1.2c0.6,0.1,1.1,0.6,1.2,1.2v7.9
				C-297.8,367-298.4,367.6-299.1,367.6z M-299.1,355.8c-0.7,0-1.3-0.6-1.3-1.3v-7.9c-0.1-0.7,0.5-1.4,1.2-1.4
				c0.7-0.1,1.4,0.5,1.4,1.2c0,0.1,0,0.1,0,0.2v7.9C-297.8,355.2-298.4,355.8-299.1,355.8z M-299.1,344c-0.7,0-1.3-0.6-1.3-1.3l0,0
				v-7.8c-0.1-0.7,0.5-1.4,1.2-1.4c0.7-0.1,1.4,0.5,1.4,1.2c0,0.1,0,0.1,0,0.2v7.8C-297.8,343.4-298.4,344-299.1,344L-299.1,344z
				 M-299.1,332.2c-0.7,0-1.3-0.6-1.3-1.3l0,0v-7.8c-0.1-0.7,0.5-1.4,1.2-1.4c0.7-0.1,1.4,0.5,1.4,1.2c0,0.1,0,0.1,0,0.2v7.8
				C-297.8,331.6-298.4,332.2-299.1,332.2L-299.1,332.2L-299.1,332.2z M-299.1,320.5c-0.7,0-1.3-0.6-1.3-1.3v-7.9
				c0.1-0.7,0.7-1.3,1.4-1.2c0.6,0.1,1.1,0.6,1.2,1.2v7.9C-297.8,319.9-298.4,320.4-299.1,320.5L-299.1,320.5z"/>
			<path id="XMLID_391_" d="M-292.4,367.6c-0.7,0-1.3-0.6-1.3-1.3v-7.9c0-0.7,0.6-1.3,1.3-1.3c0.7,0,1.3,0.6,1.3,1.3v7.9
				C-291.1,367-291.7,367.6-292.4,367.6z M-292.4,355.8c-0.7,0-1.3-0.6-1.3-1.3v-7.9c0-0.7,0.6-1.3,1.3-1.3c0.7,0,1.3,0.6,1.3,1.3
				l0,0v7.9C-291.1,355.2-291.7,355.8-292.4,355.8z M-292.4,344c-0.7,0-1.3-0.6-1.3-1.3v-7.8c0-0.7,0.6-1.3,1.3-1.3
				c0.7,0,1.3,0.6,1.3,1.3v7.8C-291.1,343.4-291.7,344-292.4,344z M-292.4,332.2c-0.7,0-1.3-0.6-1.3-1.3v-7.8c0-0.7,0.6-1.3,1.3-1.3
				c0.7,0,1.3,0.6,1.3,1.3v7.8C-291.1,331.6-291.7,332.2-292.4,332.2L-292.4,332.2L-292.4,332.2z M-292.4,320.5
				c-0.7,0-1.3-0.6-1.3-1.3v-7.9c0-0.7,0.6-1.3,1.3-1.3c0.7,0,1.3,0.6,1.3,1.3v7.9C-291.1,319.9-291.7,320.4-292.4,320.5
				L-292.4,320.5z M-292.4,308.7c-0.7,0-1.3-0.6-1.3-1.3v-6.9c0-0.7,0.6-1.3,1.3-1.3c0.7,0,1.3,0.6,1.3,1.3v6.9
				C-291.1,308.1-291.7,308.7-292.4,308.7L-292.4,308.7z"/>
			<path id="XMLID_385_" d="M-285.7,367.6c-0.7,0-1.3-0.6-1.3-1.3v-7.9c0-0.7,0.6-1.3,1.3-1.3c0.7,0,1.3,0.6,1.3,1.3v7.9
				C-284.4,367-285,367.6-285.7,367.6z M-285.7,355.8c-0.7,0-1.3-0.6-1.3-1.3v-7.9c0-0.7,0.6-1.3,1.3-1.3c0.7,0,1.3,0.6,1.3,1.3l0,0
				v7.9C-284.4,355.2-285,355.8-285.7,355.8z M-285.7,344c-0.7,0-1.3-0.6-1.3-1.3v-7.8c0-0.7,0.6-1.3,1.3-1.3c0.7,0,1.3,0.6,1.3,1.3
				v7.8C-284.4,343.4-285,344-285.7,344L-285.7,344z M-285.7,332.2c-0.7,0-1.3-0.6-1.3-1.3v-7.8c0-0.7,0.6-1.3,1.3-1.3
				c0.7,0,1.3,0.6,1.3,1.3v7.8C-284.4,331.6-285,332.2-285.7,332.2L-285.7,332.2L-285.7,332.2z M-285.7,320.5
				c-0.7,0-1.3-0.6-1.3-1.3v-7.1c0-0.7,0.6-1.3,1.3-1.3c0.7,0,1.3,0.6,1.3,1.3l0,0v7.1C-284.4,319.9-285,320.5-285.7,320.5
				L-285.7,320.5L-285.7,320.5z"/>
			<path id="XMLID_378_" d="M-279,367.6c-0.7,0-1.3-0.6-1.3-1.3v-7.9c0-0.7,0.6-1.3,1.3-1.3s1.3,0.6,1.3,1.3v7.9
				C-277.7,367-278.3,367.6-279,367.6z M-279,355.8c-0.7,0-1.3-0.6-1.3-1.3v-7.9c0-0.7,0.6-1.3,1.3-1.3s1.3,0.6,1.3,1.3l0,0v7.9
				C-277.7,355.2-278.3,355.8-279,355.8z M-279,344c-0.7,0-1.3-0.6-1.3-1.3l0,0v-7.8c0-0.7,0.6-1.3,1.3-1.3s1.3,0.6,1.3,1.3v7.8
				C-277.7,343.4-278.3,344-279,344z M-279,332.2c-0.7,0-1.3-0.6-1.3-1.3l0,0v-7.8c0-0.7,0.6-1.3,1.3-1.3s1.3,0.6,1.3,1.3v7.8
				C-277.7,331.6-278.3,332.2-279,332.2L-279,332.2z M-279,320.5c-0.7,0-1.3-0.6-1.3-1.3v-7.9c0-0.7,0.6-1.3,1.3-1.3
				s1.3,0.6,1.3,1.3v7.9C-277.7,319.9-278.3,320.4-279,320.5L-279,320.5z M-279,308.7c-0.7,0-1.3-0.6-1.3-1.3v-7.9
				c0-0.7,0.6-1.3,1.3-1.3s1.3,0.6,1.3,1.3v7.9C-277.7,308.1-278.3,308.7-279,308.7L-279,308.7z"/>
			<path id="XMLID_372_" d="M-272.3,367.6c-0.7,0-1.3-0.6-1.3-1.3v-7.9c0-0.7,0.6-1.3,1.3-1.3c0.7,0,1.3,0.6,1.3,1.3v7.9
				C-271,367-271.6,367.6-272.3,367.6z M-272.3,355.8c-0.7,0-1.3-0.6-1.3-1.3v-7.9c0-0.7,0.6-1.3,1.3-1.3c0.7,0,1.3,0.6,1.3,1.3l0,0
				v7.9C-271,355.2-271.6,355.8-272.3,355.8z M-272.3,344c-0.7,0-1.3-0.6-1.3-1.3v-7.8c0-0.7,0.6-1.3,1.3-1.3c0.7,0,1.3,0.6,1.3,1.3
				v7.8C-271,343.4-271.6,344-272.3,344L-272.3,344z M-272.3,332.2c-0.7,0-1.3-0.6-1.3-1.3v-7.8c0-0.7,0.6-1.3,1.3-1.3
				c0.7,0,1.3,0.6,1.3,1.3v7.8C-271,331.6-271.6,332.2-272.3,332.2L-272.3,332.2L-272.3,332.2z M-272.3,320.5
				c-0.7,0-1.3-0.6-1.3-1.3v-7.9c0-0.7,0.6-1.3,1.3-1.3c0.7,0,1.3,0.6,1.3,1.3v7.9C-271,319.9-271.6,320.5-272.3,320.5L-272.3,320.5
				L-272.3,320.5z"/>
			<path id="XMLID_365_" d="M-265.6,367.6c-0.7,0-1.3-0.6-1.3-1.3v-7.9c0-0.7,0.6-1.3,1.3-1.3c0.7,0,1.3,0.6,1.3,1.3v7.9
				C-264.3,367-264.9,367.6-265.6,367.6z M-265.6,355.8c-0.7,0-1.3-0.6-1.3-1.3v-7.9c0-0.7,0.6-1.3,1.3-1.3c0.7,0,1.3,0.6,1.3,1.3
				l0,0v7.9C-264.3,355.2-264.9,355.8-265.6,355.8z M-265.6,344c-0.7,0-1.3-0.6-1.3-1.3l0,0v-7.8c0-0.7,0.6-1.3,1.3-1.3
				c0.7,0,1.3,0.6,1.3,1.3v7.8C-264.3,343.4-264.9,344-265.6,344z M-265.6,332.2c-0.7,0-1.3-0.6-1.3-1.3l0,0v-7.8
				c0-0.7,0.6-1.3,1.3-1.3c0.7,0,1.3,0.6,1.3,1.3v7.8C-264.3,331.6-264.9,332.2-265.6,332.2L-265.6,332.2L-265.6,332.2z
				 M-265.6,320.5c-0.7,0-1.3-0.6-1.3-1.3v-7.9c0-0.7,0.6-1.3,1.3-1.3c0.7,0,1.3,0.6,1.3,1.3v7.9
				C-264.3,319.9-264.9,320.4-265.6,320.5L-265.6,320.5z M-265.6,308.7c-0.7,0-1.3-0.6-1.3-1.3v-2.5c0-0.7,0.6-1.3,1.3-1.3
				c0.7,0,1.3,0.6,1.3,1.3v2.5C-264.3,308.1-264.9,308.7-265.6,308.7L-265.6,308.7z"/>
			<path id="XMLID_359_" d="M-258.9,367.6c-0.7,0-1.3-0.6-1.3-1.3v-7.9c0-0.7,0.6-1.3,1.3-1.3c0.7,0,1.3,0.6,1.3,1.3v7.9
				C-257.6,367-258.2,367.6-258.9,367.6z M-258.9,355.8c-0.7,0-1.3-0.6-1.3-1.3v-7.9c0-0.7,0.6-1.3,1.3-1.3c0.7,0,1.3,0.6,1.3,1.3
				l0,0v7.9C-257.6,355.2-258.2,355.8-258.9,355.8z M-258.9,344c-0.7,0-1.3-0.6-1.3-1.3v-7.8c0-0.7,0.6-1.3,1.3-1.3
				c0.7,0,1.3,0.6,1.3,1.3v7.8C-257.6,343.4-258.2,344-258.9,344L-258.9,344z M-258.9,332.2c-0.7,0-1.3-0.6-1.3-1.3v-7.8
				c0-0.7,0.6-1.3,1.3-1.3c0.7,0,1.3,0.6,1.3,1.3v7.8C-257.6,331.6-258.2,332.2-258.9,332.2L-258.9,332.2L-258.9,332.2z
				 M-258.9,320.5c-0.7,0-1.3-0.6-1.3-1.3v-4c0-0.7,0.6-1.3,1.3-1.3c0.7,0,1.3,0.6,1.3,1.3v4C-257.6,319.9-258.2,320.5-258.9,320.5
				L-258.9,320.5L-258.9,320.5z"/>
			<path id="XMLID_354_" d="M-252.2,367.6c-0.7,0-1.3-0.6-1.3-1.3v-7.9c0-0.7,0.6-1.3,1.3-1.3s1.3,0.6,1.3,1.3v7.9
				C-250.9,367-251.5,367.6-252.2,367.6z M-252.2,355.8c-0.7,0-1.3-0.6-1.3-1.3v-7.9c0-0.7,0.6-1.3,1.3-1.3s1.3,0.6,1.3,1.3l0,0v7.9
				C-250.9,355.2-251.5,355.8-252.2,355.8z M-252.2,344c-0.7,0-1.3-0.6-1.3-1.3l0,0v-7.8c0-0.7,0.6-1.3,1.3-1.3s1.3,0.6,1.3,1.3l0,0
				v7.8C-250.9,343.4-251.5,344-252.2,344z M-252.2,332.2c-0.7,0-1.3-0.6-1.3-1.3l0,0v-6.7c0-0.7,0.6-1.3,1.3-1.3s1.3,0.6,1.3,1.3
				l0,0v6.7C-250.9,331.6-251.5,332.2-252.2,332.2L-252.2,332.2L-252.2,332.2z"/>
			<path id="XMLID_228_" d="M-279,283.5c-0.7,0-1.3-0.6-1.3-1.3l0,0v-4.8c0-0.7,0.6-1.3,1.3-1.3s1.3,0.6,1.3,1.3v4.8
				C-277.7,282.9-278.3,283.5-279,283.5z"/>
			<path id="XMLID_227_" d="M-305.8,308c-0.7,0-1.3-0.6-1.3-1.3v-6.2c0-0.7,0.6-1.3,1.3-1.3c0.7,0,1.3,0.6,1.3,1.3v6.2
				C-304.5,307.4-305.1,308-305.8,308L-305.8,308z"/>
			<path id="XMLID_226_" d="M-258.9,294c-0.7,0-1.3-0.6-1.3-1.3v-5c0-0.7,0.6-1.3,1.3-1.3c0.7,0,1.3,0.6,1.3,1.3v5
				C-257.6,293.4-258.2,294-258.9,294z"/>
			<path id="XMLID_225_" d="M-312,366.2h-3.7v-9.9c0-2.9-2.4-5.3-5.3-5.3c-1.4,0-2.8,0.6-3.8,1.6l-2.6-2.6c3.5-3.5,9.2-3.5,12.8,0
				c1.7,1.7,2.7,4,2.7,6.4L-312,366.2z"/>
			<path id="XMLID_224_" d="M-295.6,366.2h-3.7v-9.9c0-2.9-2.4-5.3-5.3-5.3c-1.4,0-2.8,0.6-3.8,1.6l-2.6-2.6c3.5-3.5,9.3-3.5,12.8,0
				c1.7,1.7,2.6,4,2.6,6.4V366.2z"/>
			<path id="XMLID_223_" d="M-279.2,366.2h-3.7v-9.9c0-2.9-2.4-5.3-5.3-5.3c-1.4,0-2.8,0.6-3.8,1.6l-2.6-2.6c3.5-3.5,9.3-3.5,12.8,0
				c1.7,1.7,2.6,4,2.6,6.4V366.2z"/>
			<path id="XMLID_222_" d="M-242.4,366.2h-3.6v-9.9c0-5,4.1-9,9-9c2.4,0,4.7,1,6.4,2.6l-2.6,2.6c-2.1-2.1-5.5-2.1-7.5,0
				c-1,1-1.6,2.4-1.6,3.8L-242.4,366.2L-242.4,366.2z"/>
			<path id="XMLID_221_" d="M-258.7,366.2h-3.7v-9.9c0-5,4-9,9-9c2.4,0,4.7,1,6.4,2.7l-2.6,2.6c-2.1-2.1-5.5-2.1-7.5,0
				c-1,1-1.6,2.4-1.6,3.8C-258.7,356.4-258.7,366.2-258.7,366.2z"/>
			<path id="XMLID_220_" d="M-275.1,366.2h-3.7v-9.9c0-5,4.1-9,9-9c2.4,0,4.7,1,6.4,2.6l-2.6,2.6c-2.1-2.1-5.5-2.1-7.5,0
				c-1,1-1.6,2.4-1.6,3.8C-275.1,356.3-275.1,366.2-275.1,366.2z"/>
			<path id="XMLID_342_" d="M-338.5,252.8H-379v-12.7h40.5V252.8z M-375.3,249.1h33.1v-5.3h-33.1V249.1z"/>
			<path id="XMLID_339_" d="M-179,252.8h-40.5v-12.7h40.5V252.8z M-215.8,249.1h33.1v-5.3h-33.1L-215.8,249.1z"/>
			<path id="XMLID_336_" d="M-290.5,228.2h-58.2v-12.6h58.3v12.6H-290.5z M-345.1,224.6h50.9v-5.3h-50.9V224.6z"/>
			<path id="XMLID_333_" d="M-257.4,209.4h-43.3v-12.6h43.3C-257.4,196.8-257.4,209.4-257.4,209.4z M-297,205.7h36v-5.3h-36V205.7z"
				/>
			<path id="XMLID_330_" d="M-209.4,228.2h-58.3v-12.6h58.3V228.2z M-263.9,224.6h50.9v-5.3h-50.9V224.6z"/>
			<rect id="XMLID_209_" x="-342.2" y="226.4" width="3.7" height="20"/>
			<rect id="XMLID_208_" x="-219.5" y="226.4" width="3.7" height="20"/>
			<polygon id="XMLID_207_" points="-263.9,367.7 -267.6,367.7 -267.6,209.4 -290.5,209.4 -290.5,367.7 -294.1,367.7 -294.1,205.7 
				-263.9,205.7 			"/>
			<path id="XMLID_206_" d="M-263.9,198.6h-3.7c0-6.3-5.1-11.4-11.4-11.4s-11.4,5.1-11.4,11.4l0,0h-3.7c0-8.3,6.8-15.1,15.1-15.1
				S-264,190.3-263.9,198.6C-264,198.6-264,198.6-263.9,198.6L-263.9,198.6z"/>
			<rect id="XMLID_205_" x="-364.9" y="266.3" width="71.5" height="3.7"/>
			<rect id="XMLID_204_" x="-265.7" y="266.3" width="71.5" height="3.7"/>
			<rect id="XMLID_203_" x="-346.9" y="280.1" width="53.5" height="3.7"/>
			<rect id="XMLID_202_" x="-265.7" y="280.1" width="54.5" height="3.7"/>
			<rect id="XMLID_201_" x="-346.9" y="357.1" width="53.5" height="3.7"/>
			<rect id="XMLID_200_" x="-265.7" y="357.1" width="54.5" height="3.7"/>
			<rect id="XMLID_199_" x="-292.3" y="260.1" width="26.8" height="3.7"/>
			<rect id="XMLID_198_" x="-340.4" y="234.6" width="47" height="3.7"/>
			<rect id="XMLID_197_" x="-265.7" y="234.6" width="48" height="3.7"/>
			<rect id="XMLID_196_" x="-292.3" y="228.4" width="26.8" height="3.7"/>
			<rect id="XMLID_195_" x="-286.1" y="239.6" width="3.7" height="13.1"/>
			<rect id="XMLID_193_" x="-275.7" y="239.6" width="3.7" height="13.1"/>
			<rect id="XMLID_192_" x="-227.9" y="255.9" width="3.7" height="7.9"/>
			<rect id="XMLID_190_" x="-238.4" y="255.9" width="3.7" height="7.9"/>
			<rect id="XMLID_189_" x="-217.4" y="255.9" width="3.7" height="7.9"/>
			<rect id="XMLID_188_" x="-207" y="255.9" width="3.7" height="7.9"/>
			<rect id="XMLID_187_" x="-204" y="278.2" width="3.7" height="7.8"/>
			<rect id="XMLID_185_" x="-204" y="290.8" width="3.7" height="7.9"/>
			<rect id="XMLID_184_" x="-204" y="303.5" width="3.7" height="7.9"/>
			<rect id="XMLID_182_" x="-204" y="316.1" width="3.7" height="7.9"/>
			<rect id="XMLID_181_" x="-204" y="328.7" width="3.7" height="7.9"/>
			<rect id="XMLID_179_" x="-204" y="341.3" width="3.7" height="7.9"/>
			<rect id="XMLID_178_" x="-204" y="353.9" width="3.7" height="7.9"/>
			<rect id="XMLID_177_" x="-357.7" y="278.2" width="3.7" height="7.8"/>
			<rect id="XMLID_176_" x="-357.7" y="290.8" width="3.7" height="7.9"/>
			<rect id="XMLID_175_" x="-357.7" y="303.5" width="3.7" height="7.9"/>
			<rect id="XMLID_174_" x="-357.7" y="316.1" width="3.7" height="7.9"/>
			<rect id="XMLID_173_" x="-357.7" y="328.7" width="3.7" height="7.9"/>
			<rect id="XMLID_172_" x="-357.7" y="341.3" width="3.7" height="7.9"/>
			<rect id="XMLID_171_" x="-357.7" y="353.9" width="3.7" height="7.9"/>
			<rect id="XMLID_170_" x="-248.8" y="255.9" width="3.7" height="7.9"/>
			<rect id="XMLID_169_" x="-259.3" y="255.9" width="3.7" height="7.9"/>
			<rect id="XMLID_168_" x="-227.9" y="243.3" width="3.7" height="7.9"/>
			<rect id="XMLID_167_" x="-238.4" y="243.3" width="3.7" height="7.9"/>
			<rect id="XMLID_166_" x="-248.8" y="243.3" width="3.7" height="7.9"/>
			<rect id="XMLID_165_" x="-259.3" y="243.3" width="3.7" height="7.9"/>
			<rect id="XMLID_164_" x="-334.1" y="255.9" width="3.7" height="7.9"/>
			<rect id="XMLID_163_" x="-323.7" y="255.9" width="3.7" height="7.9"/>
			<rect id="XMLID_162_" x="-344.6" y="255.9" width="3.7" height="7.9"/>
			<rect id="XMLID_161_" x="-355.1" y="255.9" width="3.7" height="7.9"/>
			<rect id="XMLID_160_" x="-313.2" y="255.9" width="3.7" height="7.9"/>
			<rect id="XMLID_159_" x="-302.7" y="255.9" width="3.7" height="7.9"/>
			<rect id="XMLID_158_" x="-334.1" y="243.3" width="3.7" height="7.9"/>
			<rect id="XMLID_157_" x="-323.7" y="243.3" width="3.7" height="7.9"/>
			<rect id="XMLID_156_" x="-313.2" y="243.3" width="3.7" height="7.9"/>
			<rect id="XMLID_155_" x="-302.7" y="243.3" width="3.7" height="7.9"/>
			<rect id="XMLID_154_" x="-213" y="268.1" width="3.7" height="103.2"/>
			<rect id="XMLID_153_" x="-348.7" y="268.1" width="3.7" height="103.2"/>
		</g>
	</g>
</g>
<g id="Layer_4" class="st0">
	<g id="Layer_2_4_" class="st1">
		<g id="content_2_3_">
			<rect id="XMLID_329_" x="-247.1" y="315.1" width="3.7" height="37.8"/>
			<rect id="XMLID_328_" x="-281.2" y="242.2" width="3.7" height="21.5"/>
			<rect id="XMLID_327_" x="-219.6" y="311.6" width="3.7" height="61.1"/>
			<rect id="XMLID_326_" x="-195" y="304.9" width="3.7" height="60.7"/>
			<rect id="XMLID_325_" x="-182.7" y="294" width="3.7" height="61.3"/>
			<path id="XMLID_324_" d="M-179.6,204.2h-3.7c0-10-8.2-18.2-18.2-18.2h-45.8c-10,0-18.2,8.2-18.2,18.2h-3.7
				c0-12.1,9.8-21.9,21.9-21.9h45.8C-189.4,182.3-179.6,192.1-179.6,204.2z"/>
			<path id="XMLID_323_" d="M-179.6,204.2h-3.7c0-3.9-7.5-8.2-18.2-8.2h-45.8c-10.7,0-18.2,4.3-18.2,8.2h-3.7
				c0-6.6,9.6-11.9,21.9-11.9h45.8C-189.2,192.4-179.6,197.6-179.6,204.2z"/>
			<rect id="XMLID_322_" x="-267.3" y="202.4" width="85.9" height="3.7"/>
			<path id="XMLID_321_" d="M-201.5,216.1h-45.8c-12.3,0-21.9-5.2-21.9-11.9h3.7c0,3.9,7.5,8.2,18.2,8.2h45.8
				c10.7,0,18.2-4.3,18.2-8.2h3.7C-179.6,210.9-189.2,216.1-201.5,216.1z"/>
			<path id="XMLID_320_" d="M-201.5,226.1h-45.8c-12.1,0-21.9-9.8-21.9-21.9h3.7c0,10,8.2,18.2,18.2,18.2h45.8
				c10,0,18.2-8.2,18.2-18.2h3.7C-179.6,216.3-189.4,226.1-201.5,226.1z"/>
			<polygon id="XMLID_319_" points="-267,202.5 -278.3,202.5 -278.3,185.1 -265.1,185.1 -260.8,189.4 -263.4,192 -266.7,188.8 
				-274.6,188.8 -274.6,198.8 -267,198.8 			"/>
			<polygon id="XMLID_318_" points="-265.1,224.8 -278.3,224.8 -278.3,207.4 -267.3,207.4 -267.3,211.1 -274.6,211.1 -274.6,221.1 
				-266.7,221.1 -262.7,217.1 -260.1,219.7 			"/>
			<path id="XMLID_317_" d="M-242.2,246.5h-3.7v-52.3c0-8.4,6-11.5,6.3-11.7l1.7,3.3c-0.2,0.1-4.3,2.3-4.3,8.4V246.5z"/>
			<path id="XMLID_316_" d="M-222.5,231.9h-3.7v-37.7c0-8.4,6-11.5,6.3-11.7l1.6,3.3l-0.8-1.7l0.8,1.6c-0.2,0.1-4.3,2.3-4.3,8.4
				L-222.5,231.9L-222.5,231.9z"/>
			<rect id="XMLID_315_" x="-206.3" y="224.2" width="3.7" height="15.3"/>
			<rect id="XMLID_314_" x="-280.8" y="318.5" width="3.7" height="59.3"/>
			<rect id="XMLID_313_" x="-314.6" y="315.1" width="3.7" height="39.2"/>
			<rect id="XMLID_312_" x="-281.2" y="271.5" width="3.7" height="104.4"/>
			<rect id="XMLID_311_" x="-342.1" y="311.6" width="3.7" height="61.1"/>
			<rect id="XMLID_310_" x="-366.7" y="304.9" width="3.7" height="60.7"/>
			<rect id="XMLID_309_" x="-379" y="294" width="3.7" height="61.3"/>
			<path id="XMLID_308_" d="M-279,379.7c-48.5,0-100-8.5-100-24.3h3.7c0,9.8,39.6,20.6,96.3,20.6s96.3-10.9,96.3-20.7h3.7
				c0,8.9-16.4,14.6-30.2,17.7C-227.9,377.3-252.7,379.7-279,379.7z"/>
			<path id="XMLID_307_" d="M-279,364.4c-48.5,0-100-8.5-100-24.4h3.7c0,9.8,39.6,20.7,96.3,20.7s96.3-10.9,96.3-20.7h3.7
				c0,8.9-16.4,14.6-30.2,17.7C-227.9,362-252.7,364.4-279,364.4z"/>
			<path id="XMLID_306_" d="M-213.1,312.4c-18-3.8-41.4-5.9-65.9-5.9s-47.9,2.1-65.9,5.9l-0.8-3.6c18.2-3.8,41.9-5.9,66.6-5.9
				s48.4,2.1,66.6,5.9L-213.1,312.4z"/>
			<path id="XMLID_305_" d="M-279,349c-48.5,0-100-8.5-100-24.4h3.7c0,9.8,39.6,20.7,96.3,20.7s96.3-10.9,96.3-20.7h3.7
				c0,8.9-16.4,14.6-30.2,17.7C-227.9,346.7-252.7,349-279,349z"/>
			<path id="XMLID_304_" d="M-189,304.1c-14.9-8.4-50.2-13.8-90-13.8s-75.1,5.4-90,13.8l-1.8-3.2c15.4-8.6,51.4-14.2,91.8-14.2
				s76.4,5.6,91.8,14.2L-189,304.1z"/>
			<path id="XMLID_303_" d="M-279,333.7c-48.5,0-100-8.5-100-24.4h3.7c0,9.8,39.6,20.7,96.3,20.7s96.3-10.9,96.3-20.7h3.7
				c0,8.9-16.4,14.6-30.2,17.7C-227.9,331.3-252.7,333.7-279,333.7z"/>
			<path d="M-279,318.4c-48.5,0-100-8.5-100-24.4c0-8.9,16.4-14.6,30.2-17.7c18.7-4.3,43.5-6.6,69.8-6.6c48.5,0,100,8.5,100,24.4
				c0,8.9-16.4,14.6-30.2,17.7C-227.9,316-252.7,318.4-279,318.4z M-279,273.3c-56.8,0-96.3,10.9-96.3,20.7s39.6,20.7,96.3,20.7
				s96.3-10.9,96.3-20.7S-222.2,273.3-279,273.3z"/>
			<rect id="XMLID_300_" x="-328.1" y="346.8" class="st3" width="98.2" height="31.1"/>
			<path d="M-228.1,379.7h-101.8V345h101.8V379.7z M-326.2,376h94.5v-27.4h-94.5V376z"/>
			<rect id="XMLID_297_" x="-321.5" y="353.3" class="st3" width="85.1" height="24.5"/>
			<path d="M-234.6,379.7h-88.8v-28.2h88.8V379.7z M-319.7,376h81.4v-20.8h-81.4V376z"/>
			<rect id="XMLID_294_" x="-280.8" y="353.3" width="3.7" height="24.5"/>
			<rect id="XMLID_293_" x="-259.6" y="353.3" width="3.7" height="24.5"/>
			<rect id="XMLID_292_" x="-302.1" y="353.3" width="3.7" height="24.5"/>
			<path id="XMLID_291_" d="M-256.4,317.3l-2.8-2.4c10.1-11.9,16.8-26.3,19.2-41.7l3.6,0.6C-238.8,289.9-245.8,304.9-256.4,317.3z"
				/>
			<path id="XMLID_290_" d="M-230.3,315.2l-2-3.1c16.5-11.2,26.8-23.4,27.5-32.6l3.7,0.3C-202,290.3-212.6,303.2-230.3,315.2z"/>
			<path id="XMLID_289_" d="M-302.2,317.1c-10.5-12.3-17.4-27.3-19.9-43.3l3.7-0.6c2.4,15.3,9,29.7,19.1,41.5L-302.2,317.1z"/>
			<path id="XMLID_288_" d="M-328.2,315.1c-17.6-12-28.2-24.9-29-35.3l3.7-0.3c0.7,9.2,10.9,21.3,27.4,32.5L-328.2,315.1z"/>
			<path d="M-353.5,279.7h-3.7v-35.3h25.5v17.8h-21.8V279.7z M-353.5,258.6h18.1v-10.5h-18.1V258.6z"/>
			<path d="M-201.2,279.7h-3.7v-35.3h25.5v17.8h-21.8V279.7z M-201.2,258.6h18.1v-10.5h-18.1V258.6z"/>
			<polygon id="XMLID_283_" points="-252.6,272.2 -256.3,272.2 -256.3,265.5 -301.7,265.5 -301.7,272.2 -305.4,272.2 -305.4,261.8 
				-252.6,261.8 			"/>
			<path d="M-252.6,265.5h-52.8v-25.3h52.8C-252.6,240.2-252.6,265.5-252.6,265.5z M-301.7,261.8h45.4v-18h-45.4V261.8z"/>
			<path d="M-262.8,259.1h-9.1V247h9.1V259.1z M-269.3,256.5h3.9v-6.9h-3.9V256.5z"/>
			<path d="M-286.7,259.1h-9.1V247h9.1V259.1z M-293.2,256.5h3.9v-6.9h-3.9V256.5z"/>
		</g>
	</g>
</g>
<g id="Layer_5">
	<g id="Layer_2_5_">
		<g id="content_2_4_">
			<path id="XMLID_393_" d="M-340.3,265.5c-6.5,0-11.7-5.3-11.7-11.7v-21.2h23.3v21.2C-328.6,260.2-333.9,265.5-340.3,265.5z
				 M-349.1,235.5v18.3c-0.1,4.9,3.7,8.9,8.5,9s8.9-3.7,9-8.6c0-0.1,0-0.3,0-0.5v-18.2H-349.1z"/>
			<path id="XMLID_389_" d="M-319.8,265.5c-6.5,0-11.7-5.3-11.7-11.7v-21.2h23.3v21.2C-308.2,260.2-313.4,265.5-319.8,265.5z
				 M-328.6,235.5v18.3c-0.2,4.9,3.7,8.9,8.5,9s8.9-3.7,9-8.6c0-0.1,0-0.3,0-0.5v-18.2H-328.6z"/>
			<path id="XMLID_386_" d="M-299.4,265.5c-6.5,0-11.7-5.3-11.7-11.7v-21.2h23.3v21.2C-287.7,260.2-293,265.5-299.4,265.5z
				 M-308.2,235.5v18.3c0,4.9,3.9,8.8,8.8,8.8s8.8-3.9,8.8-8.8v-18.3H-308.2z"/>
			<path id="XMLID_382_" d="M-279,265.5c-6.5,0-11.6-5.3-11.7-11.7v-21.2h23.3v21.2C-267.3,260.2-272.5,265.5-279,265.5z
				 M-287.7,235.5v18.3c-0.1,4.9,3.7,8.9,8.5,9s8.9-3.7,9-8.6c0-0.1,0-0.3,0-0.5v-18.2H-287.7z"/>
			<path id="XMLID_379_" d="M-258.6,265.5c-6.5,0-11.6-5.3-11.7-11.7v-21.2h23.3v21.2C-246.9,260.2-252.1,265.5-258.6,265.5z
				 M-267.3,235.5v18.3c-0.1,4.9,3.7,8.9,8.6,9s8.8-3.7,9-8.6c0-0.1,0-0.3,0-0.5v-18.2H-267.3z"/>
			<path id="XMLID_375_" d="M-238.1,265.5c-6.5,0-11.6-5.3-11.7-11.7v-21.2h23.3v21.2C-226.4,260.2-231.6,265.5-238.1,265.5z
				 M-246.9,235.5v18.3c-0.1,4.9,3.7,8.9,8.6,9s8.9-3.7,9-8.6c0-0.1,0-0.3,0-0.5v-18.2H-246.9z"/>
			<path id="XMLID_371_" d="M-217.6,265.5c-6.4,0-11.7-5.3-11.7-11.7v-21.2h23.3v21.2C-206,260.2-211.2,265.5-217.6,265.5z
				 M-226.4,235.5v18.3c-0.1,4.9,3.7,8.9,8.6,9s8.8-3.7,9-8.6c0-0.1,0-0.3,0-0.5v-18.2H-226.4z"/>
			<polygon id="XMLID_370_" points="-208,351.4 -349.9,351.4 -349.9,259.8 -347,259.8 -347,348.4 -210.9,348.4 -210.9,259.9 
				-208,259.9 			"/>
			<polygon id="XMLID_369_" points="-328.6,234.1 -331.5,234.1 -331.5,231.6 -330.3,222.9 -327.4,223.3 -328.6,231.9 			"/>
			<polygon id="XMLID_368_" points="-308.2,234.1 -311.1,234.1 -311.1,231.7 -310.4,223 -307.5,223.3 -308.2,231.9 			"/>
			<polygon id="XMLID_367_" points="-287.7,234.1 -290.7,234.1 -290.7,231.9 -290.4,223.1 -287.5,223.2 -287.7,231.9 			"/>
			<polygon id="XMLID_366_" points="-267.3,234.1 -270.2,234.1 -270.2,231.9 -270.4,223.2 -267.6,223.1 -267.3,231.8 			"/>
			<polygon id="XMLID_364_" points="-246.9,234.1 -249.8,234.1 -249.8,231.9 -250.5,223.3 -247.6,223 -246.9,231.9 			"/>
			<polygon id="XMLID_363_" points="-226.4,234.1 -229.3,234.1 -229.3,231.9 -230.5,223.3 -227.7,222.9 -226.4,231.9 			"/>
			<polygon id="XMLID_362_" points="-206,234.1 -208.8,234.1 -208.8,232 -210.3,224.6 -347.6,224.6 -349.1,232 -349.1,234.1 
				-351.9,234.1 -351.9,231.6 -350,221.7 -207.9,221.7 -206,231.9 			"/>
			<polygon id="XMLID_361_" points="-208,223.1 -210.9,223.1 -210.9,208.9 -347,208.9 -347,223.1 -349.9,223.1 -349.9,206 -208,206 
							"/>
			<path id="XMLID_357_" d="M-293.1,349.9H-337v-68.4h43.8L-293.1,349.9L-293.1,349.9z M-334,347h38v-62.6h-38L-334,347z"/>
			<rect id="XMLID_356_" x="-316.5" y="283" width="2.9" height="65.6"/>
			<path id="XMLID_352_" d="M-221,320.7h-54.9v-39.2h54.9V320.7z M-273,317.8h49.1v-33.4H-273V317.8z"/>
			<rect id="XMLID_351_" x="-335.5" y="287.1" width="40.9" height="2.9"/>
			<rect id="XMLID_350_" x="-274.2" y="287.1" width="51.8" height="2.9"/>
			<rect id="XMLID_349_" x="-311.1" y="314.7" width="2.9" height="7"/>
			<rect id="XMLID_348_" x="-322" y="314.7" width="2.9" height="7"/>
			<rect id="XMLID_347_" x="-274.5" y="339.4" width="52" height="2.9"/>
			<rect id="XMLID_346_" x="-232" y="340.9" width="2.9" height="15.1"/>
			<rect id="XMLID_345_" x="-266.9" y="340.9" width="2.9" height="15.1"/>
			
				<rect id="XMLID_344_" x="-349.8" y="251.4" transform="matrix(0.7071 -0.7071 0.7071 0.7071 -277.8932 -165.0881)" width="23.2" height="2.9"/>
			
				<rect id="XMLID_343_" x="-329.1" y="251.5" transform="matrix(0.7071 -0.7071 0.7071 0.7071 -271.8519 -150.4703)" width="23.2" height="2.9"/>
			
				<rect id="XMLID_341_" x="-309" y="251.5" transform="matrix(0.7071 -0.7071 0.7071 0.7071 -265.9506 -136.207)" width="23.2" height="2.9"/>
			
				<rect id="XMLID_340_" x="-288.6" y="251.5" transform="matrix(0.7071 -0.7071 0.7071 0.7071 -259.9712 -121.7773)" width="23.2" height="2.9"/>
			
				<rect id="XMLID_338_" x="-268.2" y="251.5" transform="matrix(0.7071 -0.7071 0.7071 0.7071 -253.9947 -107.3548)" width="23.2" height="2.9"/>
			
				<rect id="XMLID_337_" x="-247.8" y="251.5" transform="matrix(0.7071 -0.7071 0.7071 0.7071 -248.0153 -92.925)" width="23.2" height="2.9"/>
			
				<rect id="XMLID_335_" x="-227.4" y="251.5" transform="matrix(0.7071 -0.7071 0.7071 0.7071 -242.0462 -78.4953)" width="23.2" height="2.9"/>
			<rect id="XMLID_334_" x="-348.5" y="212.1" width="139" height="2.9"/>
			<rect id="XMLID_332_" x="-249.8" y="283.5" width="2.9" height="35.9"/>
		</g>
	</g>
</g>
</svg>
