<?xml version="1.0" encoding="utf-8"?>
<!-- Generator: Adobe Illustrator 19.0.0, SVG Export Plug-In . SVG Version: 6.00 Build 0)  -->
<svg version="1.1" id="Layer_1" xmlns="http://www.w3.org/2000/svg" xmlns:xlink="http://www.w3.org/1999/xlink" x="0px" y="0px"
	 viewBox="0 0 300 41" style="enable-background:new 0 0 300 41;" xml:space="preserve">
<style type="text/css">
	.st0{fill:#FFFFFF;}
</style>
<g>
	<path id="XMLID_17_" class="st0" d="M100,30.5c-1.5,2.7-3,5.3-5.9,6.6c-5.6,2.6-11.2-0.2-12-6.3c-0.8-6.3-0.2-12.6-0.3-18.9
		c0-0.4-0.1-1,0.4-1c1.8-0.1,3.5-0.1,5.3,0c0.8,0.1,0.5,1.1,0.5,1.6c0,4.5,0,9,0,13.5c0,4.5,1.4,6.3,4.9,6.4
		c4.2,0.1,6.8-2.3,6.9-6.5c0.1-4.1,0-8.1,0-12.2c0-2.9,0-2.9,2.9-2.9c0.4,0,0.9,0.1,1.3,0c1.5-0.2,2.2,0.3,2,1.9
		c-0.2,1.6,0,3.1,0.2,4.8c2.2-5.3,5.8-8.2,11.7-7.1c4.1,0.7,5.3,3.9,5.9,7.7c1-0.8,1.1-1.9,1.5-2.8c2-4,5.8-5.8,10.6-4.9
		c3.5,0.7,5.9,3.7,5.9,8.2c0.1,5.8,0,11.5,0.1,17.3c0,1-0.2,1.5-1.4,1.5c-4.7,0.2-4.7,0.2-4.7-4.5c0-3.7,0-7.4,0-11.2
		c0-4-1.6-5.9-4.9-6c-3.9-0.1-6.8,2.3-6.9,6.1c-0.1,4.5-0.1,9,0,13.5c0,1.6-0.4,2.2-2.1,2.1c-4-0.1-4.1,0-4.1-4.1
		c0-3.8,0-7.6,0-11.4c0-4.2-1.5-6.1-4.9-6.2c-3.9-0.1-6.8,2.3-6.9,6.1c-0.2,4.4-0.2,8.8,0,13.3c0.1,1.9-0.5,2.3-2.3,2.3
		c-3.8-0.1-3.8,0-3.8-3.9V30.5z"/>
	<path class="st0" d="M269,20.2c0-5,0-10,0-14.9c0-1.3,0.4-1.7,1.7-1.7c4.2,0.1,8.5,0,12.7,0.1c9,0.2,16.4,7.3,16.7,16
		c0.3,9.1-6.5,16.7-15.8,17.2c-4.6,0.3-9.3,0.1-14,0.2c-1.5,0-1.3-0.8-1.3-1.8C269,30.3,269,25.2,269,20.2 M275.4,20.2
		c0,2.9,0,5.9,0,8.8c0,1.1,0.2,1.6,1.5,1.6c2.2-0.1,4.5,0,6.8-0.1c5.5-0.2,9.8-4.6,9.9-10.1c0.1-5.2-4.1-9.9-9.5-10.3
		c-2.5-0.2-4.9,0-7.4-0.1c-1,0-1.3,0.4-1.3,1.3C275.4,14.4,275.4,17.3,275.4,20.2"/>
	<path class="st0" d="M193.3,30.8c-1.5,2.2-2.6,4.4-4.9,5.8c-5,3-11,1.1-13.1-4.4c-2.1-5.4-2.1-10.9,0-16.2c1.3-3.6,3.9-5.7,8-5.9
		c4-0.2,6.9,1.5,8.7,5.1c0.3,0.7,0.7,1.3,1.3,1.9c0-4.7,0.1-9.3,0-14c0-1.6,0.4-2.2,2.1-2.1c4.1,0.1,4.1,0,4.1,4.1
		c0,10,0,19.9,0,29.9c0,1.7-0.3,2.3-2.2,2.2c-4-0.1-4,0-4-4.1C193.3,32.4,193.3,31.6,193.3,30.8 M193.3,24.3c0-0.9,0-1.8-0.1-2.7
		c-0.5-3.7-3.1-6-6.7-5.9c-3.7,0-5.8,2.1-6.3,6c-0.2,2-0.2,3.9,0.1,5.9c0.6,3,2.2,4.6,5.2,5C190.3,33.1,193.3,30.1,193.3,24.3"/>
	<path class="st0" d="M160.9,25.8c-2.8,0-5.5,0-8.3,0c-1.2,0-1.4,0.4-1.2,1.5c0.7,2.5,1.8,4.6,4.6,5.3c3,0.7,5.9,0.7,8.1-2
		c0.5-0.6,5.1-1.1,5.8-0.7c0.6,0.4,0.2,0.9,0,1.3c-1.2,3.2-3.5,5.2-6.9,6.2c-6,1.7-12.5-0.2-15.7-4.8c-3.3-4.8-2.6-14.1,1.4-18.6
		c3.6-4,11.4-5.2,16.5-2.4c4.1,2.2,5.3,6,5.5,10.2c0.2,4,0.1,4-3.9,4C164.8,25.8,162.8,25.8,160.9,25.8 M158.2,21.2
		c1.8,0,3.5-0.1,5.3,0c1.2,0.1,1.5-0.3,1.2-1.5c-0.6-3.2-2.8-5-6.3-4.9c-3.7,0-6.3,2.1-6.8,5.3c-0.2,0.9,0.1,1.1,0.9,1.1
		C154.4,21.2,156.3,21.2,158.2,21.2"/>
	<path id="XMLID_10_" class="st0" d="M228.8,10.1c6.8,0.3,10.4,2.9,11.7,8.3c0.3,1.2,0.1,1.7-1.2,1.5c-0.9-0.1-1.8-0.1-2.7,0
		c-1.2,0.1-1.9-0.2-2.4-1.4c-1.1-2.5-3.4-3.3-5.9-3.2c-2.8,0.1-5.1,1.3-6.1,4.1c-1,2.9-1,5.8,0,8.7c0.9,2.8,3,4.1,5.9,4.3
		c2.7,0.2,5.1-0.5,6.3-3.3c0.8-1.9,2.3-1.2,3.6-1.2c3.4-0.1,3.4,0,2.1,3.1c-1.2,2.9-3.2,4.9-6.2,5.9c-6.5,2.3-13.8,0-16.9-5.3
		c-4.7-8-0.6-19.3,7.8-21.4C226.2,10.2,227.6,10.1,228.8,10.1"/>
	<path id="XMLID_9_" class="st0" d="M58.6,20.3c0-5,0.1-10.1,0-15.1c0-1.4,0.4-1.8,1.8-1.8c4.8,0,4.8-0.1,4.8,4.6
		c0,7.2,0,14.4,0,21.7c0,1.4,0.3,1.8,1.7,1.8c3.5-0.1,6.9,0,10.4-0.1c1.3,0,1.7,0.3,1.7,1.6c0,4.1,0.1,4.1-4,4.1
		c-4.9,0-9.7-0.1-14.6,0c-1.4,0-1.8-0.4-1.8-1.8C58.7,30.4,58.6,25.4,58.6,20.3"/>
	<path id="XMLID_8_" class="st0" d="M263.2,20.4c0,5,0,10,0,14.9c0,1.4-0.2,2-1.8,1.9c-4.7-0.1-4.7,0-4.7-4.7c0-9,0-18,0-27
		c0-1.5,0.2-2.2,2-2.2c4.5,0.1,4.5,0,4.5,4.5V20.4z"/>
	<path id="XMLID_7_" class="st0" d="M204.9,23.6c0-3.9,0-7.7,0-11.6c0-1.1,0.3-1.6,1.5-1.6c4.7-0.1,4.7-0.2,4.7,4.4
		c0,6.8,0,13.6,0,20.4c0,1.4-0.4,1.8-1.8,1.8c-4.4,0-4.4,0.1-4.4-4.3C204.9,29.6,204.9,26.6,204.9,23.6"/>
	<path id="XMLID_6_" class="st0" d="M28.3,26.1c0.4-0.4,0.8-0.8,1.1-1.2c2.7-3,2.7-5.8,0-8.7c-0.9-1-1.1-1.6-0.2-2.8
		c0.9-1.2,1.4-2.7,2.2-4.4c2.8,3,6.2,5.5,8.4,8.9c1.6,2.5,0.5,6-2.1,7.7C35.4,27.1,31,27.3,28.3,26.1"/>
	<path id="XMLID_5_" class="st0" d="M14.5,28.4c0.8,0.7,1.5,1.4,2.2,1.9c2.6,1.8,5.6,1.6,8-0.8c0.9-0.9,1.5-1,2.6-0.2
		c1.3,0.9,2.9,1.5,4,2c-2.5,2.7-4.8,5.7-7.7,8.1c-3.2,2.7-8,0.8-9.3-3.2C13.5,33.4,13.5,31,14.5,28.4"/>
	<path id="XMLID_4_" class="st0" d="M9.1,32.1c-2.7-2.7-5.2-5-7.5-7.6c-3.2-3.5-1.5-8.7,3.1-10c2.6-0.7,4.9-0.7,7.2,0.2
		c0,0.7-0.6,1-1,1.5c-2.4,2.7-2.5,6,0,8.5c1.2,1.2,1.2,2,0.2,3.1C10.2,28.9,9.9,30.4,9.1,32.1"/>
	<path id="XMLID_3_" class="st0" d="M26,12.6c-0.7-0.6-1.1-1.1-1.6-1.5c-2.5-2.2-6.1-2.3-8.4,0c-1.2,1.3-2,1.2-3.3,0.3
		c-0.8-0.6-1.8-1.1-2.8-1.4C8.6,9.7,8.8,9.2,9.6,8.4c2.2-2.1,4.2-4.3,6.5-6.3c3.3-3.1,8.6-1.7,10.1,2.7C26.9,7.3,27.1,9.8,26,12.6"
		/>
	<path id="XMLID_2_" class="st0" d="M251.5,33.9c0,1.9-1.5,3.4-3.5,3.4c-2,0-3.5-1.4-3.6-3.4c0-2,1.6-3.6,3.6-3.6
		C249.9,30.4,251.5,32,251.5,33.9"/>
	<path id="XMLID_1_" class="st0" d="M208,0.5c2,0,3.5,1.4,3.5,3.4c0,2-1.4,3.5-3.4,3.6c-2,0.1-3.7-1.5-3.7-3.5
		C204.5,2,206,0.5,208,0.5"/>
</g>
</svg>
